<svg preserveAspectRatio="none" width="100%" height="100%" overflow="visible" style="display: block;" viewBox="0 0 32 32" fill="none" xmlns="http://www.w3.org/2000/svg">
<g id="Frame">
<path id="Vector" fill-rule="evenodd" clip-rule="evenodd" d="M22.3333 10.6667V12.3333H23.1067C23.82 12.3333 24.4133 12.3333 24.9 12.3733C25.4067 12.4147 25.8813 12.504 26.3307 12.7333C27.0207 13.0849 27.5818 13.6459 27.9333 14.336C28.1627 14.7853 28.2533 15.2613 28.2933 15.768C28.3333 16.2533 28.3333 16.848 28.3333 17.56V23.7733C28.3333 24.4867 28.3333 25.08 28.2933 25.5667C28.2533 26.0733 28.1627 26.5493 27.9333 26.9987C27.5821 27.6885 27.0216 28.2495 26.332 28.6013C25.8813 28.8307 25.4067 28.92 24.9 28.9613C24.4134 29.0013 23.8201 29.0013 23.1081 29.0013H8.89333C8.18005 29.0013 7.58664 29.0013 7.1 28.9613C6.59333 28.92 6.11867 28.8307 5.66933 28.6013C4.97926 28.2498 4.41823 27.6887 4.06667 26.9987C3.83733 26.5493 3.74667 26.0733 3.70667 25.5667C3.66667 25.0813 3.66667 24.4867 3.66667 23.7747V17.56C3.66667 16.848 3.66667 16.2533 3.70667 15.768C3.74667 15.2613 3.83733 14.7853 4.06667 14.336C4.41823 13.6459 4.97926 13.0849 5.66933 12.7333C6.11867 12.504 6.59333 12.4147 7.1 12.3733C7.58665 12.3333 8.17997 12.3333 8.89328 12.3333H9.66667V10.6667C9.66667 8.696 10.1067 6.79867 11.1427 5.36667C12.2093 3.89067 13.8493 3 16 3C18.1507 3 19.7893 3.89067 20.8573 5.36667C21.8933 6.79867 22.3333 8.696 22.3333 10.6667ZM11.6667 10.6667C11.6667 8.956 12.0533 7.52 12.7627 6.53867C13.4413 5.6 14.4693 5 16 5C17.5307 5 18.5573 5.60133 19.2373 6.53867C19.9467 7.52 20.3333 8.956 20.3333 10.6667V12.3333H11.6667V10.6667ZM16 23.3818C15.3096 23.3818 14.75 22.8221 14.75 22.1318V18.25C14.75 17.5596 15.3096 17 16 17C16.6904 17 17.25 17.5596 17.25 18.25V22.1318C17.25 22.8221 16.6904 23.3818 16 23.3818Z" fill="var(--fill-0, #F98416)"/>
</g>
</svg>
