<svg preserveAspectRatio="none" width="100%" height="100%" overflow="visible" style="display: block;" viewBox="0 0 61 46" fill="none" xmlns="http://www.w3.org/2000/svg">
<g id="Frame">
<g id="Vector">
<path d="M16.2232 10.4215C15.8478 9.89592 15.2417 9.58398 14.5958 9.58398H10.8864C9.25963 9.58398 8.31339 11.4227 9.25891 12.7465L15.753 21.8382C16.2497 22.5336 16.2497 23.4677 15.753 24.1631L9.25891 33.2548C8.31339 34.5786 9.25963 36.4173 10.8864 36.4173H14.5958C15.2417 36.4173 15.8478 36.1054 16.2232 35.5798L24.378 24.1631C24.8747 23.4677 24.8747 22.5336 24.378 21.8382L16.2232 10.4215Z" fill="url(#paint0_linear_0_268)"/>
<path d="M30.4316 10.4215C30.0561 9.89592 29.45 9.58398 28.8041 9.58398H25.0947C23.468 9.58398 22.5217 11.4227 23.4672 12.7465L29.9613 21.8382C30.458 22.5336 30.458 23.4677 29.9613 24.1631L23.4672 33.2548C22.5217 34.5786 23.468 36.4173 25.0947 36.4173H28.8041C29.45 36.4173 30.0561 36.1054 30.4316 35.5798L38.5863 24.1631C39.083 23.4677 39.083 22.5336 38.5863 21.8382L30.4316 10.4215Z" fill="url(#paint1_linear_0_268)"/>
<path d="M44.6399 10.4215C44.2645 9.89592 43.6583 9.58398 43.0124 9.58398H39.303C37.6763 9.58398 36.7301 11.4227 37.6756 12.7465L44.1697 21.8382C44.6664 22.5336 44.6664 23.4677 44.1697 24.1631L37.6756 33.2548C36.7301 34.5786 37.6763 36.4173 39.303 36.4173H43.0124C43.6583 36.4173 44.2645 36.1054 44.6399 35.5798L52.7947 24.1631C53.2914 23.4677 53.2914 22.5336 52.7947 21.8382L44.6399 10.4215Z" fill="url(#paint2_linear_0_268)"/>
<path d="M14.5957 9.08398C15.4031 9.08398 16.1606 9.47393 16.6299 10.1309L24.7852 21.5479C25.4058 22.4171 25.406 23.585 24.7852 24.4541L16.6299 35.8701C16.1606 36.5271 15.4031 36.917 14.5957 36.917H10.8868C8.85333 36.917 7.66969 34.6185 8.8516 32.9639L15.3457 23.8721C15.7182 23.3505 15.7183 22.6504 15.3457 22.1289L8.8516 13.0371C7.66992 11.3825 8.85341 9.08398 10.8868 9.08398H14.5957ZM28.8038 9.08398C29.6111 9.08398 30.3696 9.47387 30.8389 10.1309L38.9932 21.5479C39.614 22.4171 39.614 23.5849 38.9932 24.4541L30.8389 35.8701C30.3696 36.5271 29.6111 36.917 28.8038 36.917H25.0948C23.0613 36.917 21.8787 34.6185 23.0606 32.9639L29.5547 23.8721C29.9269 23.3506 29.927 22.6503 29.5547 22.1289L23.0606 13.0371C21.8787 11.3824 23.0613 9.08398 25.0948 9.08398H28.8038ZM43.0127 9.08398C43.82 9.08408 44.5777 9.47395 45.0469 10.1309L53.2012 21.5479C53.8221 22.4171 53.8221 23.5849 53.2012 24.4541L45.0469 35.8701C44.5777 36.527 43.82 36.9169 43.0127 36.917H39.3028C37.2695 36.9168 36.0867 34.6185 37.2686 32.9639L43.7627 23.8721C44.1351 23.3506 44.1352 22.6504 43.7627 22.1289L37.2686 13.0371C36.0868 11.3825 37.2695 9.08419 39.3028 9.08398H43.0127Z" stroke="var(--stroke-0, white)" stroke-opacity="0.41"/>
</g>
</g>
<defs>
<linearGradient id="paint0_linear_0_268" x1="45.4167" y1="19" x2="53.3436" y2="23.8517" gradientUnits="userSpaceOnUse">
<stop stop-color="#F0B505"/>
<stop offset="0.25" stop-color="#F3C53C"/>
<stop offset="0.5" stop-color="#F5D573"/>
<stop offset="0.75" stop-color="#F8E5A9"/>
<stop offset="1" stop-color="white"/>
</linearGradient>
<linearGradient id="paint1_linear_0_268" x1="45.4167" y1="19" x2="53.3436" y2="23.8517" gradientUnits="userSpaceOnUse">
<stop stop-color="#F0B505"/>
<stop offset="0.25" stop-color="#F3C53C"/>
<stop offset="0.5" stop-color="#F5D573"/>
<stop offset="0.75" stop-color="#F8E5A9"/>
<stop offset="1" stop-color="white"/>
</linearGradient>
<linearGradient id="paint2_linear_0_268" x1="45.4167" y1="19" x2="53.3436" y2="23.8517" gradientUnits="userSpaceOnUse">
<stop stop-color="#F0B505"/>
<stop offset="0.25" stop-color="#F3C53C"/>
<stop offset="0.5" stop-color="#F5D573"/>
<stop offset="0.75" stop-color="#F8E5A9"/>
<stop offset="1" stop-color="white"/>
</linearGradient>
</defs>
</svg>
