<svg width="174" height="212" viewBox="0 0 174 212" fill="none" xmlns="http://www.w3.org/2000/svg">
<path d="M88.4477 12.3919C87.4007 11.9188 86.2007 11.9188 85.1537 12.3919L13.173 44.9156C11.7406 45.5629 10.8201 46.989 10.8201 48.5608V97.4749C10.8201 144.737 42.7342 188.958 85.7825 200.208L85.8252 200.219C86.4655 200.383 87.1381 200.386 87.7776 200.219C130.508 189.075 162.279 145.447 162.777 98.5911L162.782 97.4749V48.5608C162.782 46.989 161.862 45.5629 160.429 44.9156L88.4477 12.3919ZM173.602 97.4749C173.602 149.723 138.197 199.032 89.3674 211.154L87.7652 211.552C87.1318 211.709 86.4696 211.709 85.8362 211.552L84.234 211.154C35.4041 199.032 0 149.723 0 97.4749V41.4124C0 39.8406 0.920577 38.4144 2.35298 37.7672L85.1537 0.354823C86.2007 -0.118272 87.4007 -0.118274 88.4477 0.354817L171.249 37.7672C172.682 38.4144 173.602 39.8406 173.602 41.4124V97.4749Z" fill="#F98416"/>
<path fill-rule="evenodd" clip-rule="evenodd" d="M9.55652 45.6222L86.8011 11.2913L164.046 45.6222V97.1186C164.046 144.753 131.088 189.297 86.8011 200.111C42.5142 189.297 9.55652 144.753 9.55652 97.1186V45.6222ZM162.046 46.9212L86.8007 13.4788L11.5565 46.9212V97.1185C11.5565 143.742 43.7259 187.27 86.8007 198.049C129.876 187.271 162.046 143.743 162.046 97.1185V46.9212Z" fill="black"/>
<path fill-rule="evenodd" clip-rule="evenodd" d="M9.55652 45.6222L86.8011 11.2913L164.046 45.6222V97.1186C164.046 144.753 131.088 189.297 86.8011 200.111C42.5142 189.297 9.55652 144.753 9.55652 97.1186V45.6222ZM162.046 46.9212L86.8007 13.4788L11.5565 46.9212V97.1185C11.5565 143.742 43.7259 187.27 86.8007 198.049C129.876 187.271 162.046 143.743 162.046 97.1185V46.9212Z" fill="#F3CCA7"/>
<path d="M162.046 46.9212L86.8007 13.4788L11.5565 46.9212V97.1185C11.5565 143.742 43.7259 187.27 86.8007 198.049C129.876 187.271 162.046 143.743 162.046 97.1185V46.9212ZM164.04 98.2347C163.53 145.447 130.741 189.382 86.8007 200.112L85.7655 199.852C42.0014 188.601 9.55652 144.381 9.55652 97.1185V45.6224L86.8007 11.2913L164.046 45.6224V97.1185L164.04 98.2347Z" fill="#FAFAFA" fill-opacity="0.38"/>
</svg>
