<svg preserveAspectRatio="none" width="100%" height="100%" overflow="visible" style="display: block;" viewBox="0 0 24 24" fill="none" xmlns="http://www.w3.org/2000/svg">
<g id="wallet">
<path id="Vector" fill-rule="evenodd" clip-rule="evenodd" d="M5.64828 5.33908L5.14856 5.42439C5.31625 5.39305 5.48337 5.36338 5.64828 5.33908Z" fill="var(--fill-0, #F98416)"/>
<path id="Vector_2" d="M7.95248 5.824H18.4219C18.5725 5.82396 18.7229 5.83351 18.8722 5.8526C18.8216 5.49721 18.6995 5.15576 18.5134 4.84882C18.3272 4.54188 18.0808 4.27583 17.7891 4.06669C17.4973 3.85755 17.1662 3.70966 16.8157 3.63194C16.4653 3.55422 16.1027 3.54828 15.7499 3.61447L5.64828 5.33908L5.14856 5.42439H5.13647C4.33713 5.57543 3.81654 5.99281 3.48204 6.47699C3.11444 7.00909 2.97327 7.62305 2.97327 8.0801V9.04984C2.96003 9.15514 2.95324 9.26168 2.95312 9.36892V17.1033C2.95387 17.7868 3.22573 18.4422 3.70906 18.9255C4.1924 19.4088 4.84772 19.6807 5.53125 19.6814H18.4219C19.1054 19.6807 19.7607 19.4088 20.2441 18.9255C20.7274 18.4422 20.9993 17.7868 21 17.1033V9.36892C20.9993 8.68539 20.7274 8.03007 20.2441 7.54674C19.7607 7.06341 19.1054 6.79154 18.4219 6.7908L8.12952 6.79104L8.10953 6.7908C7.44577 6.7748 7.37841 5.96228 7.95248 5.824ZM16.5084 14.5252C16.2535 14.5252 16.0042 14.4496 15.7923 14.3079C15.5803 14.1663 15.415 13.965 15.3175 13.7294C15.2199 13.4939 15.1944 13.2347 15.2441 12.9846C15.2939 12.7346 15.4166 12.5049 15.5969 12.3246C15.7772 12.1443 16.0069 12.0216 16.2569 11.9718C16.507 11.9221 16.7662 11.9476 17.0017 12.0452C17.2373 12.1427 17.4386 12.308 17.5802 12.5199C17.7219 12.7319 17.7975 12.9812 17.7975 13.2361C17.7975 13.578 17.6617 13.9059 17.4199 14.1476C17.1782 14.3894 16.8503 14.5252 16.5084 14.5252Z" fill="var(--fill-0, #F98416)"/>
</g>
</svg>
