<svg preserveAspectRatio="none" width="100%" height="100%" overflow="visible" style="display: block;" viewBox="0 0 22 18.814" fill="none" xmlns="http://www.w3.org/2000/svg">
<g id="Group">
<g id="Vector">
</g>
<path id="Vector_2" d="M13 7C13 6.46957 13.2107 5.96086 13.5858 5.58579C13.9609 5.21071 14.4696 5 15 5C15.5304 5 16.0391 5.21071 16.4142 5.58579C16.7893 5.96086 17 6.46957 17 7C17 7.53043 16.7893 8.03914 16.4142 8.41421C16.0391 8.78929 15.5304 9 15 9C14.4696 9 13.9609 8.78929 13.5858 8.41421C13.2107 8.03914 13 7.53043 13 7Z" fill="var(--fill-0, #747CFB)"/>
<path id="Vector_3" fill-rule="evenodd" clip-rule="evenodd" d="M7 0C5.14348 2.76642e-08 3.36301 0.737498 2.05025 2.05025C0.737498 3.36301 0 5.14349 0 7C0 8.85652 0.737498 10.637 2.05025 11.9497C3.36301 13.2625 5.14348 14 7 14H15C15.9193 14 16.8295 13.8189 17.6788 13.4672C18.5281 13.1154 19.2997 12.5998 19.9497 11.9497C20.5998 11.2997 21.1154 10.5281 21.4672 9.67879C21.8189 8.82951 22 7.91925 22 7C22 6.08075 21.8189 5.1705 21.4672 4.32122C21.1154 3.47194 20.5998 2.70026 19.9497 2.05025C19.2997 1.40024 18.5281 0.884626 17.6788 0.532843C16.8295 0.18106 15.9193 -1.36979e-08 15 0H7ZM15 3C13.9391 3 12.9217 3.42143 12.1716 4.17157C11.4214 4.92172 11 5.93913 11 7C11 8.06087 11.4214 9.07828 12.1716 9.82843C12.9217 10.5786 13.9391 11 15 11C16.0609 11 17.0783 10.5786 17.8284 9.82843C18.5786 9.07828 19 8.06087 19 7C19 5.93913 18.5786 4.92172 17.8284 4.17157C17.0783 3.42143 16.0609 3 15 3Z" fill="var(--fill-0, #747CFB)"/>
</g>
</svg>
