<svg width="24" height="24" viewBox="0 0 24 24" fill="none" xmlns="http://www.w3.org/2000/svg">
<path d="M14 12C14 11.4696 14.2107 10.9609 14.5858 10.5858C14.9609 10.2107 15.4696 10 16 10C16.5304 10 17.0391 10.2107 17.4142 10.5858C17.7893 10.9609 18 11.4696 18 12C18 12.5304 17.7893 13.0391 17.4142 13.4142C17.0391 13.7893 16.5304 14 16 14C15.4696 14 14.9609 13.7893 14.5858 13.4142C14.2107 13.0391 14 12.5304 14 12Z" fill="#747CFB"/>
<path fill-rule="evenodd" clip-rule="evenodd" d="M8 5C6.14348 5 4.36301 5.7375 3.05025 7.05025C1.7375 8.36301 1 10.1435 1 12C1 13.8565 1.7375 15.637 3.05025 16.9497C4.36301 18.2625 6.14348 19 8 19H16C16.9193 19 17.8295 18.8189 18.6788 18.4672C19.5281 18.1154 20.2997 17.5998 20.9497 16.9497C21.5998 16.2997 22.1154 15.5281 22.4672 14.6788C22.8189 13.8295 23 12.9193 23 12C23 11.0807 22.8189 10.1705 22.4672 9.32122C22.1154 8.47194 21.5998 7.70026 20.9497 7.05025C20.2997 6.40024 19.5281 5.88463 18.6788 5.53284C17.8295 5.18106 16.9193 5 16 5H8ZM16 8C14.9391 8 13.9217 8.42143 13.1716 9.17157C12.4214 9.92172 12 10.9391 12 12C12 13.0609 12.4214 14.0783 13.1716 14.8284C13.9217 15.5786 14.9391 16 16 16C17.0609 16 18.0783 15.5786 18.8284 14.8284C19.5786 14.0783 20 13.0609 20 12C20 10.9391 19.5786 9.92172 18.8284 9.17157C18.0783 8.42143 17.0609 8 16 8Z" fill="#747CFB"/>
</svg>
