<svg preserveAspectRatio="none" width="100%" height="100%" overflow="visible" style="display: block;" viewBox="0 0 20 20" fill="none" xmlns="http://www.w3.org/2000/svg">
<g id="chevron-up">
<path id="Vector" fill-rule="evenodd" clip-rule="evenodd" d="M4.26129 12.0104C4.21772 11.9064 4.19591 11.7948 4.19586 11.6823C4.19586 11.5696 4.21764 11.4573 4.26129 11.3532C4.30494 11.249 4.36993 11.1547 4.45074 11.0748L9.37946 6.19502C9.72027 5.85763 10.271 5.85775 10.6119 6.19502L15.5416 11.0748C15.6222 11.1547 15.6865 11.2491 15.73 11.3532C15.7736 11.4573 15.7955 11.5696 15.7955 11.6823C15.7955 11.7084 15.7943 11.7346 15.7919 11.7606C15.7841 11.8463 15.7634 11.9306 15.73 12.0104C15.6864 12.1146 15.6223 12.2097 15.5416 12.2897C15.4608 12.3696 15.3641 12.4328 15.2584 12.4762C15.1528 12.5194 15.0397 12.5416 14.9254 12.5416C14.8251 12.5416 14.7242 12.5242 14.6301 12.491C14.6171 12.4864 14.6042 12.4814 14.5914 12.4762C14.4856 12.4328 14.3889 12.3696 14.3082 12.2897L10.1422 8.16472L10.0015 8.02508L9.8609 8.16472L5.69391 12.2897C5.35601 12.6239 4.79453 12.6189 4.45074 12.2897C4.3699 12.2098 4.30494 12.1146 4.26129 12.0104Z" fill="var(--fill-0, #18181B)"/>
</g>
</svg>
