<svg preserveAspectRatio="none" width="100%" height="100%" overflow="visible" style="display: block;" viewBox="0 0 12 12" fill="none" xmlns="http://www.w3.org/2000/svg">
<g id="Down">
<path id="Vector" d="M6.00015 7.27495L2.32515 3.59995C2.20015 3.47495 2.05432 3.41445 1.88765 3.41845C1.72098 3.42245 1.57515 3.48712 1.45015 3.61245C1.32515 3.73778 1.26265 3.88362 1.26265 4.04995C1.26265 4.21628 1.32515 4.36212 1.45015 4.48745L5.28765 8.33745C5.38765 8.43745 5.50015 8.51245 5.62515 8.56245C5.75015 8.61245 5.87515 8.63745 6.00015 8.63745C6.12515 8.63745 6.25015 8.61245 6.37515 8.56245C6.50015 8.51245 6.61265 8.43745 6.71265 8.33745L10.5627 4.48745C10.6877 4.36245 10.7482 4.21445 10.7442 4.04345C10.7402 3.87245 10.6755 3.72462 10.5502 3.59995C10.4248 3.47528 10.279 3.41278 10.1127 3.41245C9.94632 3.41212 9.80048 3.47462 9.67515 3.59995L6.00015 7.27495Z" fill="var(--fill-0, #0C0C0C)"/>
</g>
</svg>
