<svg width="28" height="28" viewBox="0 0 28 28" fill="none" xmlns="http://www.w3.org/2000/svg">
<path fill-rule="evenodd" clip-rule="evenodd" d="M3.70071 3.85263C2.33337 5.3706 2.33337 7.81541 2.33337 12.7037V13.0278H25.6667V12.7037C25.6667 7.81541 25.6667 5.3706 24.2994 3.85263C22.932 2.33467 20.7329 2.33337 16.3334 2.33337H11.6667C7.26721 2.33337 5.06687 2.33337 3.70071 3.85263ZM25.6667 14.9723H2.33337V15.2963C2.33337 20.1847 2.33337 22.6295 3.70071 24.1474C5.06804 25.6654 7.26721 25.6667 11.6667 25.6667H16.3334C20.7329 25.6667 22.9332 25.6667 24.2994 24.1474C25.6655 22.6282 25.6667 20.1847 25.6667 15.2963V14.9723ZM6.12504 21.1297C6.12504 21.3875 6.21723 21.6348 6.38132 21.8171C6.54542 21.9995 6.76798 22.1019 7.00004 22.1019C7.23211 22.1019 7.45467 21.9995 7.61876 21.8171C7.78285 21.6348 7.87504 21.3875 7.87504 21.1297V18.5371C7.87504 18.2792 7.78285 18.0319 7.61876 17.8496C7.45467 17.6673 7.23211 17.5649 7.00004 17.5649C6.76798 17.5649 6.54542 17.6673 6.38132 17.8496C6.21723 18.0319 6.12504 18.2792 6.12504 18.5371V21.1297ZM10.5 22.1019C10.268 22.1019 10.0454 21.9995 9.88132 21.8171C9.71723 21.6348 9.62504 21.3875 9.62504 21.1297V18.5371C9.62504 18.2792 9.71723 18.0319 9.88132 17.8496C10.0454 17.6673 10.268 17.5649 10.5 17.5649C10.7321 17.5649 10.9547 17.6673 11.1188 17.8496C11.2829 18.0319 11.375 18.2792 11.375 18.5371V21.1297C11.375 21.3875 11.2829 21.6348 11.1188 21.8171C10.9547 21.9995 10.7321 22.1019 10.5 22.1019ZM15.75 18.8612C15.518 18.8612 15.2954 18.9636 15.1313 19.1459C14.9672 19.3282 14.875 19.5755 14.875 19.8334C14.875 20.0912 14.9672 20.3385 15.1313 20.5208C15.2954 20.7032 15.518 20.8056 15.75 20.8056H21C21.2321 20.8056 21.4547 20.7032 21.6188 20.5208C21.7829 20.3385 21.875 20.0912 21.875 19.8334C21.875 19.5755 21.7829 19.3282 21.6188 19.1459C21.4547 18.9636 21.2321 18.8612 21 18.8612H15.75ZM10.5 10.4352C10.268 10.4352 10.0454 10.3328 9.88132 10.1505C9.71723 9.96814 9.62504 9.72085 9.62504 9.463V6.87041C9.62504 6.61256 9.71723 6.36527 9.88132 6.18295C10.0454 6.00062 10.268 5.89819 10.5 5.89819C10.7321 5.89819 10.9547 6.00062 11.1188 6.18295C11.2829 6.36527 11.375 6.61256 11.375 6.87041V9.463C11.375 9.72085 11.2829 9.96814 11.1188 10.1505C10.9547 10.3328 10.7321 10.4352 10.5 10.4352ZM6.12504 9.463C6.12504 9.72085 6.21723 9.96814 6.38132 10.1505C6.54542 10.3328 6.76798 10.4352 7.00004 10.4352C7.23211 10.4352 7.45467 10.3328 7.61876 10.1505C7.78285 9.96814 7.87504 9.72085 7.87504 9.463V6.87041C7.87504 6.61256 7.78285 6.36527 7.61876 6.18295C7.45467 6.00062 7.23211 5.89819 7.00004 5.89819C6.76798 5.89819 6.54542 6.00062 6.38132 6.18295C6.21723 6.36527 6.12504 6.61256 6.12504 6.87041V9.463ZM14.875 8.16671C14.875 7.90886 14.9672 7.66157 15.1313 7.47924C15.2954 7.29692 15.518 7.19449 15.75 7.19449H21C21.2321 7.19449 21.4547 7.29692 21.6188 7.47924C21.7829 7.66157 21.875 7.90886 21.875 8.16671C21.875 8.42456 21.7829 8.67185 21.6188 8.85417C21.4547 9.0365 21.2321 9.13893 21 9.13893H15.75C15.518 9.13893 15.2954 9.0365 15.1313 8.85417C14.9672 8.67185 14.875 8.42456 14.875 8.16671Z" fill="#EC8626"/>
</svg>
