<svg preserveAspectRatio="none" width="100%" height="100%" overflow="visible" style="display: block;" viewBox="0 0 20 20" fill="none" xmlns="http://www.w3.org/2000/svg">
<g id="chevron-down">
<path id="Vector" fill-rule="evenodd" clip-rule="evenodd" d="M4.26131 7.47328C4.21774 7.57731 4.19593 7.68891 4.19588 7.8014C4.19588 7.91405 4.21766 8.02634 4.26131 8.1305C4.30496 8.23462 4.36995 8.32898 4.45076 8.40882L9.37947 13.2886C9.72029 13.626 10.271 13.6259 10.6119 13.2886L15.5416 8.40882C15.6222 8.32896 15.6865 8.23453 15.7301 8.1305C15.7737 8.02632 15.7955 7.91405 15.7955 7.8014C15.7955 7.77522 15.7943 7.74908 15.7919 7.72308C15.7841 7.63737 15.7635 7.55311 15.7301 7.47328C15.6865 7.3691 15.6223 7.27393 15.5416 7.19399C15.4608 7.11409 15.3641 7.05082 15.2584 7.00747C15.1528 6.96425 15.0397 6.94208 14.9254 6.94204C14.8252 6.94204 14.7242 6.95943 14.6301 6.99268C14.6171 6.9973 14.6042 7.00223 14.5914 7.00747C14.4856 7.05084 14.3889 7.11404 14.3082 7.19399L10.1422 11.3189L10.0015 11.4586L9.86092 11.3189L5.69393 7.19399C5.35603 6.85972 4.79455 6.86472 4.45076 7.19399C4.36992 7.27386 4.30496 7.36911 4.26131 7.47328Z" fill="var(--fill-0, #18181B)"/>
</g>
</svg>
