<svg preserveAspectRatio="none" width="100%" height="100%" overflow="visible" style="display: block;" viewBox="0 0 28 28" fill="none" xmlns="http://www.w3.org/2000/svg">
<g id="ES" clip-path="url(#clip0_0_920)">
<path id="Vector" d="M0.875 14C0.875 16.5813 1.61999 18.9875 2.89086 21H25.1091C26.38 18.9875 27.125 16.5813 27.125 14C27.125 11.4187 26.38 9.0125 25.1091 7H2.89086C1.61999 9.0125 0.875 11.4187 0.875 14Z" fill="var(--fill-0, #F1BF00)"/>
<path id="Vector_2" d="M25.1123 7C22.7936 3.325 18.6811 0.875 13.9998 0.875C9.31858 0.875 5.20608 3.325 2.88733 7H25.1123ZM2.88733 21C5.20608 24.675 9.31858 27.125 13.9998 27.125C18.6811 27.125 22.7936 24.675 25.1123 21H2.88733Z" fill="var(--fill-0, #AA141B)"/>
<path id="Vector_3" d="M4.02498 12.5563H5.42498V13.3438H4.02498V12.5563ZM4.02498 18.3313H5.46873V19.0751H4.02498V18.3313Z" fill="var(--fill-0, #C8B100)"/>
<path id="Vector_4" d="M3.89392 17.1061C3.76267 17.1936 3.67517 17.2811 3.67517 17.3248C3.67517 17.3686 3.71892 17.4123 3.80642 17.4561C3.89392 17.4998 3.98142 17.5873 3.93767 17.6748C4.02517 17.5873 4.06892 17.4998 4.06892 17.4123C4.06892 17.2811 3.98142 17.1498 3.89392 17.1061Z" fill="var(--fill-0, #AA141B)"/>
<path id="Vector_5" d="M4.24376 13.3437H5.25001V18.3312H4.24376V13.3437Z" fill="var(--fill-0, #F9F9F9)"/>
<g id="Group">
<path id="Vector_6" d="M6.3 15.1811C6.08125 15.0936 5.6875 15.0061 5.25 15.0061C5.11875 15.0061 4.94375 15.0061 4.76875 15.0499C4.15625 15.1374 3.675 15.3999 3.71875 15.5749L3.5 15.0936C3.45625 14.8749 3.98125 14.6124 4.6375 14.4811C4.85625 14.4374 5.075 14.4374 5.25 14.4374C5.6875 14.4374 6.08125 14.4811 6.3 14.5686V15.1811Z" fill="var(--fill-0, #AA141B)"/>
<path id="Vector_7" d="M4.24359 15.8374C3.98109 15.8374 3.76234 15.7499 3.76234 15.6186C3.76234 15.5311 3.84984 15.3999 4.02484 15.3124H4.28734L4.24359 15.8374ZM5.24984 15.4436C5.42484 15.4874 5.55609 15.5311 5.64359 15.5749C5.68734 15.6186 5.51234 15.7936 5.24984 15.9249V15.4436Z" fill="var(--fill-0, #AA141B)"/>
<path id="Vector_8" d="M3.5875 16.7997C3.54375 16.7122 3.85 16.5372 4.24375 16.406C4.41875 16.3622 4.55 16.2747 4.76875 16.1872C5.29375 15.9685 5.73125 15.6622 5.64375 15.5747L5.73125 16.0997C5.775 16.1872 5.425 16.4497 4.9 16.7122C4.725 16.7997 4.41875 16.931 4.24375 16.9747C3.9375 17.0622 3.675 17.2372 3.675 17.281L3.5875 16.7997Z" fill="var(--fill-0, #AA141B)"/>
</g>
<path id="Vector_9" d="M13.4311 12.5563H14.8311V13.3438H13.4311V12.5563ZM13.3873 18.3313H14.8311V19.0751H13.3873V18.3313Z" fill="var(--fill-0, #C8B100)"/>
<path id="Vector_10" d="M14.9625 17.1062C15.0938 17.1937 15.1813 17.2812 15.1813 17.325C15.1813 17.3687 15.1375 17.4125 15.05 17.4562C14.9625 17.5437 14.875 17.675 14.9188 17.7187C14.8313 17.6312 14.7875 17.5437 14.7875 17.4562C14.7875 17.2812 14.875 17.15 14.9625 17.1062Z" fill="var(--fill-0, #AA141B)"/>
<path id="Vector_11" d="M13.6061 13.3438H14.6123V18.3313H13.6061V13.3438Z" fill="var(--fill-0, #F9F9F9)"/>
<g id="Group_2">
<path id="Vector_12" d="M12.556 15.181C12.7748 15.0935 13.1685 15.006 13.606 15.006C13.7373 15.006 13.9123 15.006 14.0873 15.0497C14.6998 15.1372 15.181 15.3997 15.1373 15.5747L15.356 15.0497C15.3998 14.831 14.8748 14.5685 14.2185 14.4372H13.606C13.1685 14.4372 12.7748 14.481 12.556 14.5685V15.181Z" fill="var(--fill-0, #AA141B)"/>
<path id="Vector_13" d="M14.6126 15.8374C14.8751 15.8374 15.0938 15.7499 15.0938 15.6187C15.0938 15.5312 15.0063 15.3999 14.8313 15.3124H14.5688L14.6126 15.8374ZM13.6063 15.4437C13.4313 15.4874 13.3001 15.5312 13.2126 15.5749C13.1688 15.6187 13.3438 15.7937 13.6063 15.9249V15.4437Z" fill="var(--fill-0, #AA141B)"/>
<path id="Vector_14" d="M15.2688 16.8001C15.3125 16.7126 15.0063 16.5376 14.6125 16.4063C14.4375 16.3626 14.3063 16.2751 14.0875 16.1876C13.5625 15.9688 13.125 15.6625 13.2125 15.575L13.125 16.1C13.0813 16.1875 13.4313 16.4501 13.9563 16.7126C14.1313 16.8001 14.4375 16.9313 14.6125 16.975C14.9188 17.0625 15.1813 17.2813 15.1375 17.325L15.2688 16.8001ZM9.40627 9.7563C10.2375 9.7563 11.9438 9.9313 12.5563 10.5438C11.9 12.1188 10.85 11.4626 9.40627 11.4626C8.00627 11.4626 6.91252 12.1188 6.25627 10.5438C6.86877 9.9313 8.53127 9.7563 9.40627 9.7563Z" fill="var(--fill-0, #AA141B)"/>
</g>
<path id="Vector_15" d="M11.55 11.5064C11.025 11.2001 10.2375 11.1564 9.40627 11.1564C8.57502 11.1564 7.78752 11.2439 7.26252 11.5064L7.43752 12.2501C7.91877 12.3814 8.61877 12.4689 9.40627 12.4689C10.1938 12.4689 10.85 12.3814 11.375 12.2501L11.55 11.5064ZM12.2938 9.62512C12.1188 9.49387 11.7688 9.36262 11.4625 9.36262C11.3313 9.36262 11.2 9.36262 11.0688 9.40637C11.0688 9.40637 10.8063 9.05638 10.1938 9.05638C9.97502 9.05638 9.80002 9.10012 9.62502 9.18762V9.14387C9.58127 9.05637 9.49377 8.96887 9.40627 8.96887C9.31877 8.96887 9.18752 9.10012 9.18752 9.18762V9.23138C9.01252 9.14388 8.83752 9.10012 8.61877 9.10012C8.00627 9.10012 7.74377 9.49388 7.74377 9.45013C7.61252 9.40638 7.48127 9.40637 7.35002 9.40637C5.33752 9.40637 6.34377 10.7626 6.34377 10.7626L6.56252 10.5001C6.08127 9.88762 6.51877 9.53762 7.39377 9.53762C7.52502 9.53762 7.61252 9.53762 7.70002 9.58137C7.39377 10.0189 7.96252 10.4126 7.96252 10.4126L8.09377 10.1939C7.78752 9.97512 7.74377 9.23138 8.61877 9.23138C8.83752 9.23138 9.01252 9.27512 9.18752 9.40637C9.18752 9.45012 9.14377 10.0626 9.10002 10.1501L9.45002 10.4564L9.80002 10.1501C9.75627 10.0189 9.71252 9.45012 9.71252 9.40637C9.84377 9.31887 10.0625 9.23138 10.2813 9.23138C11.2 9.23138 11.2 9.97512 10.8063 10.1939L10.9375 10.4126C10.9375 10.4126 11.4188 10.0189 11.2 9.58137C11.2875 9.58137 11.4188 9.53762 11.5063 9.53762C12.5563 9.53762 12.6 10.3251 12.3375 10.5001L12.5125 10.7626C12.425 10.7626 12.9063 10.1501 12.2938 9.62512Z" fill="var(--fill-0, #C8B100)"/>
<path id="Vector_16" d="M9.14392 8.79375C9.14392 8.6625 9.27517 8.53125 9.40642 8.53125C9.58142 8.53125 9.66892 8.6625 9.66892 8.79375C9.66892 8.925 9.53767 9.05625 9.40642 9.05625C9.27517 9.05625 9.14392 8.925 9.14392 8.79375Z" fill="var(--fill-0, #005BBF)"/>
<path id="Vector_17" d="M9.31892 8.04974V8.18099H9.18767V8.31224H9.31892V8.74974H9.14392V8.88099H9.66892L9.71267 8.79349L9.66892 8.74974H9.49392V8.31224H9.62517V8.18099H9.49392V8.04974H9.31892Z" fill="var(--fill-0, #C8B100)"/>
<path id="Vector_18" d="M9.40642 12.3814C8.70642 12.3814 8.09392 12.2939 7.61267 12.1626C8.09392 12.0314 8.70642 11.9439 9.40642 11.9439C10.1064 11.9439 10.7189 12.0314 11.2002 12.1626C10.7627 12.2939 10.1064 12.3814 9.40642 12.3814Z" fill="var(--fill-0, #AA141B)"/>
<path id="Vector_19" d="M9.45017 19.9498C8.61892 19.9498 7.83142 19.7311 7.13142 19.4248C6.60642 19.1623 6.30017 18.6811 6.30017 18.1123V16.0123H12.6002V18.1123C12.6002 18.6811 12.2502 19.2061 11.7689 19.4248C11.0689 19.7748 10.2814 19.9498 9.45017 19.9498ZM9.40642 12.5123H12.5564V16.0123H9.40642V12.5123Z" fill="var(--fill-0, #F9F9F9)"/>
<path id="Vector_20" d="M9.45017 18.1128C9.45017 18.944 8.75017 19.6003 7.87517 19.6003C7.00017 19.6003 6.30017 18.944 6.30017 18.1128V16.0128H9.45017V18.1128Z" fill="var(--fill-0, #AA141B)"/>
<path id="Vector_21" d="M6.95627 19.3374C7.04377 19.3811 7.17502 19.4686 7.35002 19.5124V15.9249H7.00002L6.95627 19.3374ZM6.25627 18.0686C6.25627 18.5061 6.43127 18.8561 6.60627 19.0311V15.9249H6.25627V18.0686Z" fill="var(--fill-0, #C8B100)"/>
<path id="Vector_22" d="M7.65628 19.5999H8.00628V15.9249H7.65628V19.5999Z" fill="var(--fill-0, #C7B500)"/>
<path id="Vector_23" d="M8.35608 19.5122C8.48733 19.4685 8.66233 19.381 8.74983 19.3372V15.9247H8.39983L8.35608 19.5122Z" fill="var(--fill-0, #C8B100)"/>
<path id="Vector_24" d="M6.25627 12.5125H9.40627V16.0125H6.25627V12.5125Z" fill="var(--fill-0, #AA141B)"/>
<path id="Vector_25" d="M9.09996 19.0312C9.27496 18.9 9.40621 18.5937 9.44996 18.2437V15.9687H9.09996V19.0312Z" fill="var(--fill-0, #C8B100)"/>
<path id="Vector_26" d="M12.6002 16.0125V18.1125C12.6002 18.9437 11.9002 19.6 11.0252 19.6C10.1502 19.6 9.45017 18.9437 9.45017 18.1125V16.0125H12.6002ZM11.4627 13.125C11.5939 13.3875 11.5939 14.0437 11.2002 13.9125C11.2877 13.9562 11.3314 14.2625 11.4627 14.4375C11.6814 14.7 11.9439 14.4812 11.9002 14.175C11.8127 13.6937 11.8564 13.3875 11.9439 12.9062C11.9439 12.95 12.1627 12.95 12.2502 12.8625C12.2064 12.9937 12.1627 13.1687 12.2502 13.1687C12.1627 13.3 11.9439 13.5187 11.9002 13.65C11.8564 13.9562 12.3377 14.525 11.8127 14.6562C11.4627 14.7437 11.6814 15.0062 11.8127 15.1375C11.8127 15.1375 11.6377 15.7062 11.7252 15.6625C11.3752 15.7937 11.4627 15.4875 11.4627 15.4875C11.6377 14.9625 11.1564 14.9187 11.2002 14.8312C10.7627 14.7875 11.2439 15.225 10.8502 15.225C10.7627 15.225 10.5877 15.3125 10.5877 15.3125C10.1064 15.2687 10.3689 14.8312 10.5439 14.875C10.6752 14.9187 10.8064 15.1375 10.8064 14.8312C10.8064 14.8312 10.5877 14.4812 11.1564 14.4812C10.9377 14.4812 10.8064 14.3062 10.7189 14.0875C10.6314 14.1312 10.5002 14.35 10.0189 14.3937C10.0189 14.3937 9.88767 13.9125 10.0189 14C10.1939 14.0875 10.2814 14.0875 10.4564 13.9125C10.3689 13.7812 9.84392 13.6062 9.93142 13.3C9.93142 13.2125 10.1939 13.0812 10.1939 13.0812C10.1502 13.3 10.2814 13.5187 10.5439 13.5187C10.8939 13.5625 10.7627 13.4312 10.8064 13.3437C10.8502 13.2562 11.1127 13.3875 11.0252 13.1687C11.0252 13.125 10.7189 13.0812 10.8064 12.95C10.9814 12.7312 11.2439 12.9062 11.4627 13.125ZM9.45017 19.5125L9.36267 19.2937L9.45017 19.0312L9.53767 19.2937L9.45017 19.5125Z" fill="var(--fill-0, #AA141B)"/>
<path id="Vector_27" d="M7.21892 13.2562V13.475H7.30642V13.65H7.08767V14.0875H7.21892V15.05H6.95642V15.5313H8.75017V15.05H8.53142V14.0875H8.61892V13.65H8.40017V13.475H8.53142V13.2562H8.09392V13.475H8.18142V13.65H7.96267V13.125H8.09392V12.9062H7.61267V13.125H7.74392V13.65H7.52517V13.475H7.61267V13.2562H7.21892ZM12.1627 18.6375V16.45H9.88767V18.6375L10.9377 19.1188H11.0689L12.1627 18.6375ZM10.9377 16.625V17.3688L10.1939 16.625H10.9377ZM10.0189 16.6687L10.8939 17.5437L10.0189 18.4187V16.6687ZM10.1064 18.5938L10.9377 17.7625V18.9875L10.1064 18.5938ZM11.0689 18.9438V17.7188L11.9002 18.55L11.0689 18.9438ZM11.9877 18.4187L11.1127 17.5437L11.9877 16.6687V18.4187ZM11.0689 16.625H11.8127L11.0689 17.3688V16.625Z" fill="var(--fill-0, #C8B100)"/>
<path id="Vector_28" d="M8.40004 15.9688C8.40004 15.3125 8.83754 14.8313 9.40629 14.8313C9.97504 14.8313 10.4125 15.3563 10.4125 15.9688C10.4125 16.5813 9.97504 17.1063 9.40629 17.1063C8.83754 17.1063 8.40004 16.625 8.40004 15.9688Z" fill="var(--fill-0, #AA141B)"/>
<path id="Vector_29" d="M8.70642 15.9686C8.70642 15.4873 9.01267 15.1373 9.40642 15.1373C9.80017 15.1373 10.1064 15.5311 10.1064 15.9686C10.1064 16.4498 9.80017 16.7998 9.40642 16.7998C9.05642 16.8436 8.70642 16.4498 8.70642 15.9686Z" fill="var(--fill-0, #005BBF)"/>
<path id="Vector_30" d="M9.10017 15.3999L8.92517 15.8811L9.05642 15.9249L8.96892 16.0999H9.23142L9.14392 15.9249L9.27517 15.8811L9.10017 15.3999ZM9.75642 15.3999L9.58142 15.8811L9.71267 15.9249L9.62517 16.0999H9.88767L9.84392 15.9249L9.97517 15.8811L9.75642 15.3999ZM9.45017 15.9686L9.23142 16.4499L9.36267 16.4936L9.31892 16.6686H9.53767L9.49392 16.4936L9.62517 16.4499L9.45017 15.9686Z" fill="var(--fill-0, #C8B100)"/>
</g>
<defs>
<clipPath id="clip0_0_920">
<rect width="28" height="28" fill="white"/>
</clipPath>
</defs>
</svg>
