<svg width="28" height="28" viewBox="0 0 28 28" fill="none" xmlns="http://www.w3.org/2000/svg">
<g clip-path="url(#clip0_18_1538)">
<path d="M21 2.89086C18.9875 1.61999 16.5813 0.875 14 0.875C11.4187 0.875 9.0125 1.61999 7 2.89086V25.1092C9.0125 26.3801 11.4187 27.1251 14 27.1251C16.5813 27.1251 18.9875 26.3801 21 25.1092V2.89086Z" fill="#F9F9F9"/>
<path d="M21 2.89075V25.1084C24.675 22.8692 27.125 18.704 27.125 14.1395C27.125 9.57507 24.675 5.17298 21 2.89075ZM7 2.89075C3.325 5.17298 0.875 9.64479 0.875 14.1662C0.875 18.6876 3.325 22.8215 7 25.1037V2.89075ZM18.7688 13.8277C18.5938 13.7416 18.55 13.5693 18.5938 13.4832L19.0312 11.933L17.5 12.2344C17.4562 12.2344 17.2813 12.2344 17.2375 11.933L17.1062 11.4163L16.0563 12.622C16.0563 12.622 15.3562 13.354 15.575 12.2344L16.0125 9.86607L15.1813 10.2967C15.1375 10.2967 14.9625 10.3397 14.7438 9.90914L14 8.23031L13.2125 9.82301C12.9938 10.2536 12.8188 10.2106 12.775 10.2106L11.9437 9.77995L12.3812 12.1483C12.6 13.2679 11.9 12.5359 11.9 12.5359L10.85 11.3301L10.7188 11.8469C10.6312 12.1483 10.5 12.1483 10.4562 12.1483L8.925 11.8469L9.3625 13.3971C9.3625 13.5263 9.3625 13.6554 9.1875 13.7416L8.75 13.9999C8.75 13.9999 10.5 15.3779 11.0687 15.8516C11.2 15.9377 11.4625 16.196 11.375 16.4975L11.1562 17.1003L13.5625 16.7558C13.6938 16.7558 13.9562 16.7558 13.9125 17.1434L13.7812 19.5979H14.2188L14.0875 17.1434C14.0875 16.7558 14.35 16.7558 14.4375 16.7558L16.8438 17.1003L16.625 16.4975C16.5375 16.196 16.8 15.9377 16.9313 15.8516C17.5 15.3779 19.25 13.9999 19.25 13.9999L18.7688 13.8277Z" fill="#EA0319"/>
</g>
<defs>
<clipPath id="clip0_18_1538">
<rect width="28" height="28" fill="white"/>
</clipPath>
</defs>
</svg>
