<svg width="16" height="16" viewBox="0 0 16 16" fill="none" xmlns="http://www.w3.org/2000/svg">
<g clip-path="url(#clip0_18_1532)">
<path d="M8 15.5005C12.15 15.5005 15.5 12.1505 15.5 8.00049H0.5C0.5 12.1505 3.85 15.5005 8 15.5005Z" fill="#F9F9F9"/>
<path d="M8 0.500122C3.85 0.500122 0.5 3.85012 0.5 8.00012H15.5C15.5 3.85012 12.15 0.500122 8 0.500122Z" fill="#DF0000"/>
<path d="M5.3 4.37512L5 4.12512H5.375L5.5 3.75012L5.625 4.12512H6L5.7 4.37512L5.8 4.75012L5.5 4.52512L5.2 4.75012L5.3 4.37512ZM7.3 4.37512L7 4.12512H7.375L7.5 3.75012L7.625 4.12512H8L7.7 4.37512L7.8 4.75012L7.5 4.52512L7.2 4.75012L7.3 4.37512ZM5.55 5.62512L5.25 5.37512H5.625L5.75 5.00012L5.875 5.37512H6.25L5.95 5.62512L6.05 6.00012L5.75 5.77512L5.45 6.00012L5.55 5.62512ZM7.05 5.62512L6.75 5.37512H7.125L7.25 5.00012L7.375 5.37512H7.75L7.45 5.62512L7.55 6.00012L7.25 5.77512L6.95 6.00012L7.05 5.62512ZM6.3 3.62512L6 3.37512H6.375L6.5 3.00012L6.625 3.37512H7L6.7 3.62512L6.8 4.00012L6.5 3.77512L6.2 4.00012L6.3 3.62512Z" fill="#F9F9F9"/>
<path d="M6.1 7.00037C4.9 7.00037 3.95 5.97537 3.95 4.72537C3.95 3.47537 4.925 2.45037 6.1 2.45037C6.2 2.45037 6.275 2.45037 6.35 2.47537C6.05 2.32537 5.725 2.25037 5.375 2.25037C4.075 2.25037 3 3.37537 3 4.75037C3 6.12537 4.075 7.25037 5.375 7.25037C5.775 7.25037 6.175 7.15037 6.5 6.95037C6.375 6.97537 6.25 7.00037 6.1 7.00037Z" fill="#F9F9F9"/>
</g>
<defs>
<clipPath id="clip0_18_1532">
<rect width="16" height="16" fill="white"/>
</clipPath>
</defs>
</svg>
