<svg preserveAspectRatio="none" width="100%" height="100%" overflow="visible" style="display: block;" viewBox="0 0 28 28" fill="none" xmlns="http://www.w3.org/2000/svg">
<g id="BD" clip-path="url(#clip0_0_709)">
<path id="Vector" d="M14 27.125C21.2487 27.125 27.125 21.2487 27.125 14C27.125 6.75126 21.2487 0.875 14 0.875C6.75126 0.875 0.875 6.75126 0.875 14C0.875 21.2487 6.75126 27.125 14 27.125Z" fill="var(--fill-0, #75A843)"/>
<path id="Vector_2" d="M14 27.125C21.2487 27.125 27.125 21.2487 27.125 14C27.125 6.75126 21.2487 0.875 14 0.875C6.75126 0.875 0.875 6.75126 0.875 14C0.875 21.2487 6.75126 27.125 14 27.125Z" fill="var(--fill-0, #006A4D)"/>
<path id="Vector_3" d="M11.3752 20.1687C14.7821 20.1687 17.5439 17.4069 17.5439 14C17.5439 10.5931 14.7821 7.83121 11.3752 7.83121C7.96826 7.83121 5.20642 10.5931 5.20642 14C5.20642 17.4069 7.96826 20.1687 11.3752 20.1687Z" fill="var(--fill-0, #F42A41)"/>
</g>
<defs>
<clipPath id="clip0_0_709">
<rect width="28" height="28" fill="white"/>
</clipPath>
</defs>
</svg>
