<svg width="64" height="64" viewBox="0 0 64 64" fill="none" xmlns="http://www.w3.org/2000/svg">
<mask id="mask0_802_34169" style="mask-type:luminance" maskUnits="userSpaceOnUse" x="2" y="2" width="60" height="60">
<path d="M32 62C48.57 62 62 48.57 62 32C62 15.43 48.57 2 32 2C15.43 2 2 15.43 2 32C2 48.57 15.43 62 32 62Z" fill="white"/>
</mask>
<g mask="url(#mask0_802_34169)">
<path d="M2 2L24.5 32L2 62H7.51L62 39.85V35.87L58.25 32L62 28.13V24.15L7.51 2H2Z" fill="#EEEEEE"/>
<path d="M2 18.64V45.36L18.41 32L2 18.64Z" fill="#333333"/>
<path d="M24.5 32L2 13.13V18.64L15.36 32L2 45.36V50.87L24.5 32Z" fill="#FFDA44"/>
<path d="M62 28.13H28.13L2 2V13.02L20.87 32L2 50.98V62L28.13 35.87H62V28.13Z" fill="#6DA544"/>
<path d="M62 2H7.51L29.66 24.15H62V2Z" fill="#D80027"/>
<path d="M62 62H7.51L29.66 39.85H62V62Z" fill="#0052B4"/>
</g>
</svg>
