<svg preserveAspectRatio="none" width="100%" height="100%" overflow="visible" style="display: block;" viewBox="0 0 28 28" fill="none" xmlns="http://www.w3.org/2000/svg">
<g id="TR" clip-path="url(#clip0_0_1158)">
<path id="Vector" d="M14 27.125C21.2487 27.125 27.125 21.2487 27.125 14C27.125 6.75126 21.2487 0.875 14 0.875C6.75126 0.875 0.875 6.75126 0.875 14C0.875 21.2487 6.75126 27.125 14 27.125Z" fill="var(--fill-0, #EC1C24)"/>
<g id="Group">
<path id="Vector_2" d="M18.0687 17.0625L18.1125 14.7L15.75 14L18.1125 13.3L18.0687 10.9375L19.5125 12.8187L21.875 12.1188L20.4313 14L21.875 15.8812L19.5125 15.1813L18.0687 17.0625Z" fill="var(--fill-0, #F9F9F9)"/>
<path id="Vector_3" d="M14.525 19.25C11.6375 19.25 9.31875 16.8875 9.31875 14C9.31875 11.1125 11.6375 8.75 14.525 8.75C15.6188 8.75 16.625 9.1 17.5 9.66875C16.3187 8.3125 14.5687 7.4375 12.6 7.4375C9.0125 7.4375 6.125 10.3687 6.125 14C6.125 17.6313 9.0125 20.5625 12.6 20.5625C14.5687 20.5625 16.3187 19.6875 17.5 18.3313C16.6688 18.9 15.6625 19.25 14.525 19.25Z" fill="var(--fill-0, #F9F9F9)"/>
</g>
</g>
<defs>
<clipPath id="clip0_0_1158">
<rect width="28" height="28" fill="white"/>
</clipPath>
</defs>
</svg>
