<svg preserveAspectRatio="none" width="100%" height="100%" overflow="visible" style="display: block;" viewBox="0 0 28 28" fill="none" xmlns="http://www.w3.org/2000/svg">
<g id="AU">
<g clip-path="url(#clip0_0_985)">
<path id="Vector" d="M14 0.875V5.25H5.25V14H0.875C0.875 21.2625 6.7375 27.125 14 27.125C21.2625 27.125 27.125 21.2625 27.125 14C27.125 6.7375 21.2625 0.875 14 0.875Z" fill="var(--fill-0, #00247D)"/>
<path id="Vector_2" d="M14 0.875C11.9438 0.875 10.0187 1.35625 8.26875 2.1875V4.8125H4.8125V8.26875H2.1875C1.35625 10.0187 0.875 11.9438 0.875 14H6.125V7.4375L11.375 14H14V10.7188L10.325 6.125H14V0.875Z" fill="var(--fill-0, #F9F9F9)"/>
<g id="Group">
<path id="Vector_3" d="M6.7375 6.125L13.125 14H14V11.8563L9.3625 6.125H6.7375Z" fill="var(--fill-0, #CF1B2B)"/>
<path id="Vector_4" d="M14 2.1875H8.26875C5.64375 3.45625 3.45625 5.64375 2.1875 8.26875V14H4.8125V4.8125H14V2.1875Z" fill="var(--fill-0, #CF1B2B)"/>
</g>
<path id="Vector_5" d="M3.5 15.6188L4.4625 14.4375L4.15625 15.9688L5.6875 16.0125L4.33125 16.7125L5.25 17.9375L3.89375 17.325L3.5 18.8125L3.10625 17.325L1.75 17.9375L2.66875 16.7125L1.3125 16.0125L2.84375 15.9688L2.5375 14.4375L3.5 15.6188ZM22.75 8.8375L23.5375 7.875L23.275 9.1L24.5 9.14375L23.4062 9.7125L24.15 10.675L23.0563 10.15L22.75 11.375L22.4437 10.15L21.35 10.675L22.0938 9.7125L21 9.14375L22.225 9.1L21.9625 7.875L22.75 8.8375ZM22.75 17.5875L23.5375 16.625L23.275 17.85L24.5 17.8938L23.4062 18.4625L24.15 19.425L23.0563 18.9L22.75 20.125L22.4437 18.9L21.35 19.425L22.0938 18.4625L21 17.8938L22.225 17.85L21.9625 16.625L22.75 17.5875ZM18.375 11.4625L19.1625 10.5L18.9 11.725L20.125 11.7687L19.0312 12.3375L19.775 13.3L18.6813 12.775L18.375 14L18.0687 12.775L16.975 13.3L17.7188 12.3375L16.625 11.7687L17.85 11.725L17.5875 10.5L18.375 11.4625Z" fill="var(--fill-0, #F9F9F9)"/>
</g>
</g>
<defs>
<clipPath id="clip0_0_985">
<rect width="28" height="28" rx="14" fill="white"/>
</clipPath>
</defs>
</svg>
