<svg preserveAspectRatio="none" width="100%" height="100%" overflow="visible" style="display: block;" viewBox="0 0 28 28" fill="none" xmlns="http://www.w3.org/2000/svg">
<g id="PT" clip-path="url(#clip0_0_1093)">
<path id="Vector" d="M7.4375 25.375V2.625C3.5 4.9 0.875 9.14375 0.875 14C0.875 18.8563 3.5 23.1 7.4375 25.375Z" fill="var(--fill-0, #006600)"/>
<path id="Vector_2" d="M14 0.875C11.5938 0.875 9.3625 1.53125 7.4375 2.625V25.375C9.3625 26.5125 11.5938 27.125 14 27.125C21.2625 27.125 27.125 21.2625 27.125 14C27.125 6.7375 21.2625 0.875 14 0.875Z" fill="var(--fill-0, #D52B1E)"/>
<g id="Group">
<path id="Vector_3" d="M7.4375 8.75C4.55 8.75 2.1875 11.1125 2.1875 14C2.1875 16.8875 4.55 19.25 7.4375 19.25C10.325 19.25 12.6875 16.8875 12.6875 14C12.6875 11.1125 10.325 8.75 7.4375 8.75ZM7.4375 18.5938C4.9 18.5938 2.84375 16.5375 2.84375 14C2.84375 11.4625 4.9 9.40625 7.4375 9.40625C9.975 9.40625 12.0312 11.4625 12.0312 14C12.0312 16.5375 9.975 18.5938 7.4375 18.5938Z" fill="var(--fill-0, #FFCC4D)"/>
<path id="Vector_4" d="M9.23109 19.1188C9.14359 19.2063 9.01234 19.2063 8.92484 19.1188L2.93109 11.2C2.84359 11.1125 2.84359 10.9813 2.93109 10.8938L3.06234 10.7625C3.14984 10.675 3.28109 10.675 3.36859 10.7625L9.36234 18.6813C9.44984 18.7688 9.44984 18.9 9.36234 18.9875L9.23109 19.1188Z" fill="var(--fill-0, #FFCC4D)"/>
<path id="Vector_5" d="M7.52466 8.53125C7.65591 8.53125 7.74341 8.61875 7.74341 8.75V19.25C7.74341 19.3813 7.65591 19.4688 7.52466 19.4688H7.30591C7.17466 19.4688 7.08716 19.3813 7.08716 19.25V8.75C7.08716 8.61875 7.17466 8.53125 7.30591 8.53125H7.52466Z" fill="var(--fill-0, #FFCC4D)"/>
<path id="Vector_6" d="M12.6434 14.5686L7.43717 13.6498V14.3061L12.5559 15.2248C12.6872 15.2248 12.7747 15.1811 12.8184 15.0498L12.8622 14.8311C12.8622 14.7436 12.7747 14.6123 12.6434 14.5686ZM7.43717 13.6061L3.32467 10.7186C3.23717 10.6311 3.10592 10.6748 3.01842 10.7623L2.88717 10.9373C2.79967 11.0248 2.84342 11.1561 2.93092 11.2436L7.43717 14.3936V13.6061Z" fill="var(--fill-0, #FFCC4D)"/>
<path id="Vector_7" d="M7.26234 13.125L3.14984 17.2375C3.06234 17.325 3.06234 17.4562 3.14984 17.5437L3.32484 17.7188C3.41234 17.8063 3.54359 17.8063 3.63109 17.7188L7.26234 14.0875V13.125ZM7.43734 11.1562L1.96859 13.7375C1.88109 13.7812 1.79359 13.9125 1.88109 14.0437L1.96859 14.2625C2.01234 14.35 2.14359 14.4375 2.27484 14.35L7.43734 11.9V11.1562Z" fill="var(--fill-0, #FFCC4D)"/>
<path id="Vector_8" d="M12.2934 11.9L7.08716 10.9813V11.6375L12.2059 12.5563C12.3372 12.5563 12.4247 12.5125 12.4684 12.3813L12.5122 12.1625C12.4684 12.0313 12.3809 11.9 12.2934 11.9ZM7.39341 17.0188C7.30591 17.0625 7.21841 17.1938 7.30591 17.325L7.39341 17.5438C7.43716 17.6313 7.56841 17.7188 7.69966 17.6313L12.0747 15.6188L12.2934 14.7875L7.39341 17.0188ZM7.39341 15.5313L2.49341 13.7375V14.4375L7.39341 16.2313V15.5313Z" fill="var(--fill-0, #FFCC4D)"/>
<path id="Vector_9" d="M3.98109 16.975V17.6312L10.4561 18.0687C10.7186 17.8937 10.9373 17.675 11.1561 17.4562L3.98109 16.975Z" fill="var(--fill-0, #FFCC4D)"/>
</g>
<path id="Vector_10" d="M5.25 11.8125V14.875C5.25 16.1 6.2125 17.0625 7.4375 17.0625C8.6625 17.0625 9.625 16.1 9.625 14.875V11.8125H5.25Z" fill="var(--fill-0, #F9F9F9)"/>
<path id="Vector_11" d="M7.4375 17.9375C5.73125 17.9375 4.375 16.5813 4.375 14.875V10.9375H10.5V14.875C10.5 16.5813 9.14375 17.9375 7.4375 17.9375ZM6.125 12.6875V14.875C6.125 15.6188 6.69375 16.1875 7.4375 16.1875C8.18125 16.1875 8.75 15.6188 8.75 14.875V12.6875H6.125Z" fill="var(--fill-0, #D52B1E)"/>
<path id="Vector_12" d="M7.04358 12.8624V13.5624C7.04358 13.6937 7.13108 13.7812 7.26233 13.7812H7.61233C7.74358 13.7812 7.83108 13.6937 7.83108 13.5624V12.8187H7.04358V12.8624ZM7.04358 13.9562V14.6999C7.04358 14.8312 7.13108 14.9187 7.26233 14.9187H7.61233C7.74358 14.9187 7.83108 14.8312 7.83108 14.6999V13.9562H7.04358ZM6.16858 13.9562V14.6999C6.16858 14.8312 6.25608 14.9187 6.38733 14.9187H6.73733C6.86858 14.9187 6.95608 14.8312 6.95608 14.6999V13.9562H6.16858ZM7.91858 13.9562V14.6999C7.91858 14.8312 8.00608 14.9187 8.13733 14.9187H8.48733C8.61858 14.9187 8.70608 14.8312 8.70608 14.6999V13.9562H7.91858ZM7.04358 15.0062V15.7499C7.04358 15.8812 7.13108 15.9687 7.26233 15.9687H7.61233C7.74358 15.9687 7.83108 15.8812 7.83108 15.7499V15.0062H7.04358Z" fill="var(--fill-0, #003399)"/>
<g id="Group_2">
<path id="Vector_13" d="M7.43784 14.4813C7.48617 14.4813 7.52534 14.4422 7.52534 14.3938C7.52534 14.3455 7.48617 14.3063 7.43784 14.3063C7.38952 14.3063 7.35034 14.3455 7.35034 14.3938C7.35034 14.4422 7.38952 14.4813 7.43784 14.4813Z" fill="var(--fill-0, #F9F9F9)"/>
<path id="Vector_14" d="M7.26267 14.7001C7.311 14.7001 7.35017 14.6609 7.35017 14.6126C7.35017 14.5643 7.311 14.5251 7.26267 14.5251C7.21435 14.5251 7.17517 14.5643 7.17517 14.6126C7.17517 14.6609 7.21435 14.7001 7.26267 14.7001Z" fill="var(--fill-0, #F9F9F9)"/>
<path id="Vector_15" d="M7.61267 14.7001C7.661 14.7001 7.70017 14.6609 7.70017 14.6126C7.70017 14.5643 7.661 14.5251 7.61267 14.5251C7.56435 14.5251 7.52517 14.5643 7.52517 14.6126C7.52517 14.6609 7.56435 14.7001 7.61267 14.7001Z" fill="var(--fill-0, #F9F9F9)"/>
<path id="Vector_16" d="M7.26267 14.2626C7.311 14.2626 7.35017 14.2234 7.35017 14.1751C7.35017 14.1268 7.311 14.0876 7.26267 14.0876C7.21435 14.0876 7.17517 14.1268 7.17517 14.1751C7.17517 14.2234 7.21435 14.2626 7.26267 14.2626Z" fill="var(--fill-0, #F9F9F9)"/>
<path id="Vector_17" d="M7.61267 14.2626C7.661 14.2626 7.70017 14.2234 7.70017 14.1751C7.70017 14.1268 7.661 14.0876 7.61267 14.0876C7.56435 14.0876 7.52517 14.1268 7.52517 14.1751C7.52517 14.2234 7.56435 14.2626 7.61267 14.2626Z" fill="var(--fill-0, #F9F9F9)"/>
<path id="Vector_18" d="M7.43784 13.3876C7.48617 13.3876 7.52534 13.3484 7.52534 13.3001C7.52534 13.2518 7.48617 13.2126 7.43784 13.2126C7.38952 13.2126 7.35034 13.2518 7.35034 13.3001C7.35034 13.3484 7.38952 13.3876 7.43784 13.3876Z" fill="var(--fill-0, #F9F9F9)"/>
<path id="Vector_19" d="M7.26267 13.6063C7.311 13.6063 7.35017 13.5672 7.35017 13.5188C7.35017 13.4705 7.311 13.4313 7.26267 13.4313C7.21435 13.4313 7.17517 13.4705 7.17517 13.5188C7.17517 13.5672 7.21435 13.6063 7.26267 13.6063Z" fill="var(--fill-0, #F9F9F9)"/>
<path id="Vector_20" d="M7.61267 13.6063C7.661 13.6063 7.70017 13.5672 7.70017 13.5188C7.70017 13.4705 7.661 13.4313 7.61267 13.4313C7.56435 13.4313 7.52517 13.4705 7.52517 13.5188C7.52517 13.5672 7.56435 13.6063 7.61267 13.6063Z" fill="var(--fill-0, #F9F9F9)"/>
<path id="Vector_21" d="M7.26267 13.1688C7.311 13.1688 7.35017 13.1297 7.35017 13.0813C7.35017 13.033 7.311 12.9938 7.26267 12.9938C7.21435 12.9938 7.17517 13.033 7.17517 13.0813C7.17517 13.1297 7.21435 13.1688 7.26267 13.1688Z" fill="var(--fill-0, #F9F9F9)"/>
<path id="Vector_22" d="M7.61267 13.1688C7.661 13.1688 7.70017 13.1297 7.70017 13.0813C7.70017 13.033 7.661 12.9938 7.61267 12.9938C7.56435 12.9938 7.52517 13.033 7.52517 13.0813C7.52517 13.1297 7.56435 13.1688 7.61267 13.1688Z" fill="var(--fill-0, #F9F9F9)"/>
<path id="Vector_23" d="M8.31284 14.4813C8.36117 14.4813 8.40034 14.4422 8.40034 14.3938C8.40034 14.3455 8.36117 14.3063 8.31284 14.3063C8.26452 14.3063 8.22534 14.3455 8.22534 14.3938C8.22534 14.4422 8.26452 14.4813 8.31284 14.4813Z" fill="var(--fill-0, #F9F9F9)"/>
<path id="Vector_24" d="M8.13767 14.7001C8.186 14.7001 8.22517 14.6609 8.22517 14.6126C8.22517 14.5643 8.186 14.5251 8.13767 14.5251C8.08935 14.5251 8.05017 14.5643 8.05017 14.6126C8.05017 14.6609 8.08935 14.7001 8.13767 14.7001Z" fill="var(--fill-0, #F9F9F9)"/>
<path id="Vector_25" d="M8.48767 14.7001C8.536 14.7001 8.57517 14.6609 8.57517 14.6126C8.57517 14.5643 8.536 14.5251 8.48767 14.5251C8.43935 14.5251 8.40017 14.5643 8.40017 14.6126C8.40017 14.6609 8.43935 14.7001 8.48767 14.7001Z" fill="var(--fill-0, #F9F9F9)"/>
<path id="Vector_26" d="M8.13767 14.2626C8.186 14.2626 8.22517 14.2234 8.22517 14.1751C8.22517 14.1268 8.186 14.0876 8.13767 14.0876C8.08935 14.0876 8.05017 14.1268 8.05017 14.1751C8.05017 14.2234 8.08935 14.2626 8.13767 14.2626Z" fill="var(--fill-0, #F9F9F9)"/>
<path id="Vector_27" d="M8.48767 14.2626C8.536 14.2626 8.57517 14.2234 8.57517 14.1751C8.57517 14.1268 8.536 14.0876 8.48767 14.0876C8.43935 14.0876 8.40017 14.1268 8.40017 14.1751C8.40017 14.2234 8.43935 14.2626 8.48767 14.2626Z" fill="var(--fill-0, #F9F9F9)"/>
<path id="Vector_28" d="M6.56284 14.4813C6.61117 14.4813 6.65034 14.4422 6.65034 14.3938C6.65034 14.3455 6.61117 14.3063 6.56284 14.3063C6.51452 14.3063 6.47534 14.3455 6.47534 14.3938C6.47534 14.4422 6.51452 14.4813 6.56284 14.4813Z" fill="var(--fill-0, #F9F9F9)"/>
<path id="Vector_29" d="M6.38767 14.7001C6.436 14.7001 6.47517 14.6609 6.47517 14.6126C6.47517 14.5643 6.436 14.5251 6.38767 14.5251C6.33935 14.5251 6.30017 14.5643 6.30017 14.6126C6.30017 14.6609 6.33935 14.7001 6.38767 14.7001Z" fill="var(--fill-0, #F9F9F9)"/>
<path id="Vector_30" d="M6.73767 14.7001C6.786 14.7001 6.82517 14.6609 6.82517 14.6126C6.82517 14.5643 6.786 14.5251 6.73767 14.5251C6.68935 14.5251 6.65017 14.5643 6.65017 14.6126C6.65017 14.6609 6.68935 14.7001 6.73767 14.7001Z" fill="var(--fill-0, #F9F9F9)"/>
<path id="Vector_31" d="M6.38767 14.2626C6.436 14.2626 6.47517 14.2234 6.47517 14.1751C6.47517 14.1268 6.436 14.0876 6.38767 14.0876C6.33935 14.0876 6.30017 14.1268 6.30017 14.1751C6.30017 14.2234 6.33935 14.2626 6.38767 14.2626Z" fill="var(--fill-0, #F9F9F9)"/>
<path id="Vector_32" d="M6.73767 14.2626C6.786 14.2626 6.82517 14.2234 6.82517 14.1751C6.82517 14.1268 6.786 14.0876 6.73767 14.0876C6.68935 14.0876 6.65017 14.1268 6.65017 14.1751C6.65017 14.2234 6.68935 14.2626 6.73767 14.2626Z" fill="var(--fill-0, #F9F9F9)"/>
<path id="Vector_33" d="M7.43784 15.5751C7.48617 15.5751 7.52534 15.5359 7.52534 15.4876C7.52534 15.4393 7.48617 15.4001 7.43784 15.4001C7.38952 15.4001 7.35034 15.4393 7.35034 15.4876C7.35034 15.5359 7.38952 15.5751 7.43784 15.5751Z" fill="var(--fill-0, #F9F9F9)"/>
<path id="Vector_34" d="M7.26267 15.7938C7.311 15.7938 7.35017 15.7547 7.35017 15.7063C7.35017 15.658 7.311 15.6188 7.26267 15.6188C7.21435 15.6188 7.17517 15.658 7.17517 15.7063C7.17517 15.7547 7.21435 15.7938 7.26267 15.7938Z" fill="var(--fill-0, #F9F9F9)"/>
<path id="Vector_35" d="M7.61267 15.7938C7.661 15.7938 7.70017 15.7547 7.70017 15.7063C7.70017 15.658 7.661 15.6188 7.61267 15.6188C7.56435 15.6188 7.52517 15.658 7.52517 15.7063C7.52517 15.7547 7.56435 15.7938 7.61267 15.7938Z" fill="var(--fill-0, #F9F9F9)"/>
<path id="Vector_36" d="M7.26267 15.3563C7.311 15.3563 7.35017 15.3172 7.35017 15.2688C7.35017 15.2205 7.311 15.1813 7.26267 15.1813C7.21435 15.1813 7.17517 15.2205 7.17517 15.2688C7.17517 15.3172 7.21435 15.3563 7.26267 15.3563Z" fill="var(--fill-0, #F9F9F9)"/>
<path id="Vector_37" d="M7.61267 15.3563C7.661 15.3563 7.70017 15.3172 7.70017 15.2688C7.70017 15.2205 7.661 15.1813 7.61267 15.1813C7.56435 15.1813 7.52517 15.2205 7.52517 15.2688C7.52517 15.3172 7.56435 15.3563 7.61267 15.3563Z" fill="var(--fill-0, #F9F9F9)"/>
</g>
<path id="Vector_38" d="M7 12.25H7.875L7.7875 11.8125V11.375H7.875V11.1562H7.74375V11.2875H7.7V11.1562H7.56875V11.2875H7.48125V11.1562H7.39375V11.2875H7.30625V11.1562H7.175V11.2875H7.0875V11.1562H7V11.375H7.0875V11.8125L7 12.25Z" fill="var(--fill-0, #FFCC4D)"/>
<path id="Vector_39" d="M7.56892 12.25H7.52517V12.075C7.52517 12.0313 7.48142 11.9875 7.43767 11.9875C7.39392 11.9875 7.35017 12.0313 7.35017 12.075V12.25H7.30642V12.075C7.30642 11.9875 7.35017 11.9438 7.43767 11.9438C7.52517 11.9438 7.56892 11.9875 7.56892 12.075V12.25ZM7.43767 11.7688H7.17517V11.55C7.17517 11.4625 7.21892 11.4188 7.30642 11.4188C7.39392 11.4188 7.43767 11.4625 7.43767 11.55V11.7688ZM7.21892 11.725H7.39392V11.55C7.39392 11.5063 7.35017 11.4625 7.30642 11.4625C7.26267 11.4625 7.21892 11.5063 7.21892 11.55V11.725ZM7.70017 11.7688H7.43767V11.55C7.43767 11.4625 7.48142 11.4188 7.56892 11.4188C7.65642 11.4188 7.70017 11.4625 7.70017 11.55V11.7688ZM7.48142 11.725H7.65642V11.55C7.65642 11.5063 7.61267 11.4625 7.56892 11.4625C7.52517 11.4625 7.48142 11.5063 7.48142 11.55V11.725Z" fill="var(--fill-0, #3E4347)"/>
<path id="Vector_40" d="M4.8125 12.25H5.6875L5.6 11.8125V11.375H5.6875V11.1562H5.55625V11.2875H5.5125V11.1562H5.38125V11.2875H5.29375V11.1562H5.20625V11.2875H5.11875V11.1562H4.9875V11.2875H4.9V11.1562H4.8125V11.375H4.9V11.8125L4.8125 12.25Z" fill="var(--fill-0, #FFCC4D)"/>
<g id="Group_3">
<path id="Vector_41" d="M5.38142 12.25H5.33767V12.075C5.33767 12.0313 5.29392 11.9875 5.25017 11.9875C5.20642 11.9875 5.16267 12.0313 5.16267 12.075V12.25H5.11892V12.075C5.11892 11.9875 5.16267 11.9438 5.25017 11.9438C5.33767 11.9438 5.38142 11.9875 5.38142 12.075V12.25ZM5.25017 11.7688H4.98767V11.55C4.98767 11.4625 5.03142 11.4188 5.11892 11.4188C5.20642 11.4188 5.25017 11.4625 5.25017 11.55V11.7688ZM5.03142 11.725H5.20642V11.55C5.20642 11.5063 5.16267 11.4625 5.11892 11.4625C5.07517 11.4625 5.03142 11.5063 5.03142 11.55V11.725Z" fill="var(--fill-0, #3E4347)"/>
<path id="Vector_42" d="M5.5125 11.7688H5.25V11.55C5.25 11.4625 5.29375 11.4188 5.38125 11.4188C5.46875 11.4188 5.5125 11.4625 5.5125 11.55V11.7688ZM5.29375 11.725H5.46875V11.55C5.46875 11.5063 5.425 11.4625 5.38125 11.4625C5.3375 11.4625 5.29375 11.5063 5.29375 11.55V11.725Z" fill="var(--fill-0, #3E4347)"/>
</g>
<path id="Vector_43" d="M4.8125 14.8313H5.6875L5.6 14.3938V13.9563H5.6875V13.7375H5.6V13.8688H5.5125V13.7375H5.425V13.8688H5.29375V13.7375H5.20625V13.8688H5.11875V13.7375H5.03125V13.8688H4.94375V13.7375H4.8125V13.9563H4.94375V14.3938L4.8125 14.8313Z" fill="var(--fill-0, #FFCC4D)"/>
<path id="Vector_44" d="M5.38142 14.8313H5.33767V14.6562C5.33767 14.6125 5.29392 14.5687 5.25017 14.5687C5.20642 14.5687 5.16267 14.6125 5.16267 14.6562V14.8313H5.11892V14.6562C5.11892 14.5687 5.16267 14.525 5.25017 14.525C5.33767 14.525 5.38142 14.5687 5.38142 14.6562V14.8313ZM5.25017 14.35H4.98767V14.1312C4.98767 14.0437 5.03142 14 5.11892 14C5.20642 14 5.25017 14.0437 5.25017 14.1312V14.35ZM5.03142 14.3063H5.20642V14.1312C5.20642 14.0875 5.16267 14.0437 5.11892 14.0437C5.07517 14.0437 5.03142 14.0875 5.03142 14.1312V14.3063ZM5.55642 14.35H5.29392V14.1312C5.29392 14.0437 5.33767 14 5.42517 14C5.51267 14 5.55642 14.0437 5.55642 14.1312V14.35ZM5.33767 14.3063H5.51267V14.1312C5.51267 14.0875 5.46892 14.0437 5.42517 14.0437C5.38142 14.0437 5.33767 14.0875 5.33767 14.1312V14.3063Z" fill="var(--fill-0, #3E4347)"/>
<path id="Vector_45" d="M9.1875 14.875H10.0625L9.975 14.4375V14H10.0625V13.825H9.93125V13.9125H9.8875V13.825H9.75625V13.9125H9.66875V13.825H9.58125V13.9125H9.49375V13.825H9.3625V13.9125H9.275V13.825H9.1875V14H9.275V14.4375L9.1875 14.875Z" fill="var(--fill-0, #FFCC4D)"/>
<path id="Vector_46" d="M9.75642 14.875H9.71267V14.7C9.71267 14.6563 9.66892 14.6125 9.62517 14.6125C9.58142 14.6125 9.53767 14.6563 9.53767 14.7V14.875H9.49392V14.7C9.49392 14.6125 9.53767 14.5688 9.62517 14.5688C9.71267 14.5688 9.75642 14.6125 9.75642 14.7V14.875ZM9.62517 14.3938H9.36267V14.175C9.36267 14.0875 9.40642 14.0438 9.49392 14.0438C9.58142 14.0438 9.62517 14.0875 9.62517 14.175V14.3938ZM9.40642 14.35H9.58142V14.175C9.58142 14.1313 9.53767 14.0875 9.49392 14.0875C9.45017 14.0875 9.40642 14.1313 9.40642 14.175V14.35ZM9.88767 14.3938H9.62517V14.175C9.62517 14.0875 9.66892 14.0438 9.75642 14.0438C9.84392 14.0438 9.88767 14.0875 9.88767 14.175V14.3938ZM9.66892 14.35H9.84392V14.175C9.84392 14.1313 9.80017 14.0875 9.75642 14.0875C9.71267 14.0875 9.66892 14.1313 9.66892 14.175V14.35Z" fill="var(--fill-0, #3E4347)"/>
<path id="Vector_47" d="M9.1875 12.25H10.0625L9.975 11.8125V11.375H10.0625V11.1562H9.93125V11.2875H9.8875V11.1562H9.75625V11.2875H9.66875V11.1562H9.58125V11.2875H9.49375V11.1562H9.3625V11.2875H9.275V11.1562H9.1875V11.375H9.275V11.8125L9.1875 12.25Z" fill="var(--fill-0, #FFCC4D)"/>
<path id="Vector_48" d="M9.75642 12.25H9.71267V12.075C9.71267 12.0313 9.66892 11.9875 9.62517 11.9875C9.58142 11.9875 9.53767 12.0313 9.53767 12.075V12.25H9.49392V12.075C9.49392 11.9875 9.53767 11.9438 9.62517 11.9438C9.71267 11.9438 9.75642 11.9875 9.75642 12.075V12.25ZM9.62517 11.7688H9.36267V11.55C9.36267 11.4625 9.40642 11.4188 9.49392 11.4188C9.58142 11.4188 9.62517 11.4625 9.62517 11.55V11.7688ZM9.40642 11.725H9.58142V11.55C9.58142 11.5063 9.53767 11.4625 9.49392 11.4625C9.45017 11.4625 9.40642 11.5063 9.40642 11.55V11.725ZM9.88767 11.7688H9.62517V11.55C9.62517 11.4625 9.66892 11.4188 9.75642 11.4188C9.84392 11.4188 9.88767 11.4625 9.88767 11.55V11.7688ZM9.66892 11.725H9.84392V11.55C9.84392 11.5063 9.80017 11.4625 9.75642 11.4625C9.71267 11.4625 9.66892 11.5063 9.66892 11.55V11.725Z" fill="var(--fill-0, #3E4347)"/>
<path id="Vector_49" d="M6.2125 17.325L6.825 16.6687L6.43125 16.45L6.125 16.1438L6.2125 16.0563L6.08125 15.925L5.99375 16.0125L6.08125 16.1L6.0375 16.1438L5.95 16.0563L5.8625 16.1438L5.95 16.1875L5.8625 16.275L5.81875 16.1875L5.73125 16.275L5.81875 16.3625L5.73125 16.4063L5.6875 16.3188L5.6 16.4063L5.64375 16.4938L5.6 16.5375L5.55625 16.45L5.46875 16.5375L5.6 16.6687H5.64375L5.6875 16.625L5.99375 16.9313L6.2125 17.325Z" fill="var(--fill-0, #FFCC4D)"/>
<path id="Vector_50" d="M6.4314 16.8C6.38765 16.7563 6.3439 16.7563 6.30015 16.8C6.2564 16.8438 6.2564 16.8875 6.30015 16.9313L6.4314 17.0625L6.38765 17.1063L6.2564 16.975C6.21265 16.9313 6.21265 16.8438 6.2564 16.8C6.30015 16.7563 6.38765 16.7563 6.4314 16.8ZM6.1689 16.6688L5.9939 16.8438L5.86265 16.7125C5.8189 16.6688 5.8189 16.5813 5.86265 16.5375C5.9064 16.4938 5.9939 16.4938 6.03765 16.5375L6.1689 16.6688ZM5.9939 16.8L6.12515 16.6688L5.9939 16.5375C5.95015 16.4938 5.9064 16.4938 5.86265 16.5375C5.79702 16.6032 5.8189 16.625 5.86265 16.6688L5.9939 16.8ZM6.38765 16.45L6.21265 16.625L6.0814 16.4938C6.03765 16.45 6.03765 16.3625 6.0814 16.3188C6.12515 16.275 6.21265 16.275 6.2564 16.3188L6.38765 16.45ZM6.21265 16.5813L6.3439 16.45L6.21265 16.3188C6.1689 16.275 6.12515 16.275 6.0814 16.3188C6.01577 16.3844 6.03765 16.4063 6.0814 16.45L6.21265 16.5813Z" fill="var(--fill-0, #3E4347)"/>
<path id="Vector_51" d="M8.66267 17.325L8.05017 16.6687L8.40017 16.45L8.70642 16.1437L8.66267 16.0562L8.79392 15.925L8.88142 16.0125L8.79392 16.1L8.83767 16.1437L8.92517 16.0562L9.01267 16.1437L8.92517 16.1875L9.01267 16.275L9.05642 16.1875L9.14392 16.275L9.05642 16.3625L9.14392 16.4062L9.18767 16.3187L9.27517 16.4062L9.18767 16.4937L9.27517 16.5375L9.31892 16.45L9.40642 16.5375L9.27517 16.6687H9.23142L9.18767 16.625L8.88142 16.9312L8.66267 17.325Z" fill="var(--fill-0, #FFCC4D)"/>
<path id="Vector_52" d="M8.26892 16.8875L8.44392 16.8C8.48767 16.7563 8.53142 16.7563 8.57517 16.8C8.6408 16.8657 8.61892 16.8875 8.57517 16.9313L8.40017 17.0625L8.44392 17.1063L8.57517 16.975C8.61892 16.9313 8.61892 16.8438 8.57517 16.8C8.53142 16.7563 8.44392 16.7563 8.40017 16.8L8.26892 16.8875ZM8.83767 16.5375C8.88142 16.4938 8.96892 16.4938 9.01267 16.5375C9.05642 16.5813 9.05642 16.6688 9.01267 16.7125L8.88142 16.8438L8.70642 16.6688L8.83767 16.5375ZM8.96892 16.6688C9.01267 16.625 9.01267 16.5813 8.96892 16.5375C8.92517 16.4938 8.88142 16.4938 8.83767 16.5375L8.75017 16.6688L8.88142 16.8L8.96892 16.6688ZM8.61892 16.3188C8.66267 16.275 8.75017 16.275 8.79392 16.3188C8.83767 16.3625 8.83767 16.45 8.79392 16.4938L8.66267 16.625L8.48767 16.45L8.61892 16.3188ZM8.79392 16.45C8.83767 16.4063 8.83767 16.3625 8.79392 16.3188C8.75017 16.275 8.70642 16.275 8.66267 16.3188L8.53142 16.45L8.66267 16.5813L8.79392 16.45Z" fill="var(--fill-0, #3E4347)"/>
</g>
<defs>
<clipPath id="clip0_0_1093">
<rect width="28" height="28" fill="white"/>
</clipPath>
</defs>
</svg>
