<svg preserveAspectRatio="none" width="100%" height="100%" overflow="visible" style="display: block;" viewBox="0 0 28 28" fill="none" xmlns="http://www.w3.org/2000/svg">
<g id="CN" clip-path="url(#clip0_0_1238)">
<path id="Vector" d="M14 27.125C21.2487 27.125 27.125 21.2487 27.125 14C27.125 6.75126 21.2487 0.875 14 0.875C6.75126 0.875 0.875 6.75126 0.875 14C0.875 21.2487 6.75126 27.125 14 27.125Z" fill="var(--fill-0, #EC1C24)"/>
<path id="Vector_2" d="M9.625 12.425L13.125 14.875L11.8125 10.85L15.3125 8.3125H10.9813L9.625 4.375L8.3125 8.3125H3.9375L7.4375 10.85L6.125 14.875L9.625 12.425ZM15.4437 15.4437L14.4375 15.6625L15.4 16.0563V17.0625L16.0563 16.3187L17.0188 16.6687L16.45 15.8375L17.0625 15.05L16.0563 15.2688L15.4437 14.4375V15.4437ZM16.9313 12.4688L16.1875 13.125L17.1937 13.0375L17.6312 14L17.8063 12.9938L18.8125 12.9062L17.9375 12.3812L18.1562 11.375L17.4125 12.0312L16.5375 11.5062L16.9313 12.4688ZM17.1937 9.05625L17.5 10.0625L17.8063 9.1H18.8125L18.025 8.4875L18.3313 7.48125L17.5 8.09375L16.7125 7.4375L17.0188 8.44375L16.1875 9.0125L17.1937 9.05625ZM15.4437 5.55625V6.5625L16.0563 5.73125L17.0625 5.95L16.45 5.1625L17.0188 4.33125L16.0563 4.725L15.4 3.9375V4.94375L14.4375 5.3375L15.4437 5.55625Z" fill="var(--fill-0, #F9CB38)"/>
</g>
<defs>
<clipPath id="clip0_0_1238">
<rect width="28" height="28" fill="white"/>
</clipPath>
</defs>
</svg>
