<svg width="32" height="32" viewBox="0 0 32 32" fill="none" xmlns="http://www.w3.org/2000/svg">
<path d="M16 1V6H6V16H1C1 24.3 7.7 31 16 31C24.3 31 31 24.3 31 16C31 7.7 24.3 1 16 1Z" fill="#00247D"/>
<path d="M16 1C13.65 1 11.45 1.55 9.45 2.5V5.5H5.5V9.45H2.5C1.55 11.45 1 13.65 1 16H7V8.5L13 16H16V12.25L11.8 7H16V1Z" fill="#F9F9F9"/>
<path d="M7.69995 7L15 16H16V13.55L10.7 7H7.69995Z" fill="#CF1B2B"/>
<path d="M16 2.5H9.45C6.45 3.95 3.95 6.45 2.5 9.45V16H5.5V5.5H16V2.5Z" fill="#CF1B2B"/>
<path d="M4 17.85L5.1 16.5L4.75 18.25L6.5 18.3L4.95 19.1L6 20.5L4.45 19.8L4 21.5L3.55 19.8L2 20.5L3.05 19.1L1.5 18.3L3.25 18.25L2.9 16.5L4 17.85ZM26 10.1L26.9 9L26.6 10.4L28 10.45L26.75 11.1L27.6 12.2L26.35 11.6L26 13L25.65 11.6L24.4 12.2L25.25 11.1L24 10.45L25.4 10.4L25.1 9L26 10.1ZM26 20.1L26.9 19L26.6 20.4L28 20.45L26.75 21.1L27.6 22.2L26.35 21.6L26 23L25.65 21.6L24.4 22.2L25.25 21.1L24 20.45L25.4 20.4L25.1 19L26 20.1ZM21 13.1L21.9 12L21.6 13.4L23 13.45L21.75 14.1L22.6 15.2L21.35 14.6L21 16L20.65 14.6L19.4 15.2L20.25 14.1L19 13.45L20.4 13.4L20.1 12L21 13.1Z" fill="#F9F9F9"/>
</svg>
