<svg width="20" height="20" viewBox="0 0 20 20" fill="none" xmlns="http://www.w3.org/2000/svg">
<g clip-path="url(#clip0_18_1540)">
<path d="M15 2.06274C13.5312 1.15649 11.8437 0.625244 10 0.625244V2.06274H15Z" fill="#B22234"/>
<path d="M10 3.50024H16.75C16.2187 2.96899 15.625 2.46899 15 2.06274H10V3.50024Z" fill="#F9F9F9"/>
<path d="M10 4.93787H17.9062C17.5625 4.40662 17.1875 3.93787 16.7812 3.50037H10V4.93787Z" fill="#B22234"/>
<path d="M10 6.37512H18.6563C18.4375 5.87512 18.1875 5.37512 17.9062 4.93762H10V6.37512Z" fill="#F9F9F9"/>
<path d="M10 7.81299H19.125C19 7.31299 18.8437 6.84424 18.6562 6.37549H10V7.81299Z" fill="#B22234"/>
<path d="M10 9.28113H19.3438C19.3125 8.78113 19.2188 8.31238 19.125 7.84363H10V9.28113Z" fill="#F9F9F9"/>
<path d="M19.3437 9.28186H10V10.0006H0.625C0.625 10.2506 0.625 10.4694 0.65625 10.7194H19.3437C19.375 10.4694 19.375 10.2506 19.375 10.0006C19.375 9.75061 19.375 9.50061 19.3437 9.28186Z" fill="#B22234"/>
<path d="M0.874878 12.1563H19.1249C19.2499 11.6875 19.3124 11.2187 19.3436 10.7188H0.656128C0.687378 11.1875 0.781128 11.6875 0.874878 12.1563Z" fill="#F9F9F9"/>
<path d="M1.34375 13.5939H18.6562C18.8437 13.1251 19 12.6564 19.125 12.1564H0.875C1 12.6564 1.15625 13.1251 1.34375 13.5939Z" fill="#B22234"/>
<path d="M2.09375 15.0314H17.9062C18.1875 14.5626 18.4375 14.0939 18.6563 13.5939H1.34375C1.5625 14.0939 1.8125 14.5626 2.09375 15.0314Z" fill="#F9F9F9"/>
<path d="M3.21875 16.469H16.7812C17.1875 16.0315 17.5937 15.5315 17.9062 15.0315H2.09375C2.40625 15.5627 2.8125 16.0315 3.21875 16.469Z" fill="#B22234"/>
<path d="M4.96875 17.9069H15.0312C15.6875 17.5006 16.25 17.0006 16.7812 16.4694H3.21875C3.75 17.0319 4.34375 17.5006 4.96875 17.9069Z" fill="#F9F9F9"/>
<path d="M9.99976 19.3751C11.8435 19.3751 13.5623 18.8439 15.031 17.9064H4.96851C6.43726 18.8439 8.15601 19.3751 9.99976 19.3751Z" fill="#B22234"/>
<path d="M5 2.06274C4.34375 2.46899 3.75 2.96899 3.21875 3.50024C2.78125 3.93774 2.40625 4.43774 2.09375 4.93774C1.8125 5.40649 1.53125 5.87524 1.34375 6.37524C1.15625 6.84399 1 7.31274 0.875 7.81274C0.75 8.28149 0.6875 8.75024 0.65625 9.25024C0.625 9.50024 0.625 9.75024 0.625 10.0002H10V0.625244C8.15625 0.625244 6.46875 1.15649 5 2.06274Z" fill="#3C3B6E"/>
<path d="M7.81262 0.937622L7.96887 1.40637H8.43762L8.06262 1.71887L8.18762 2.18762L7.81262 1.90637L7.43762 2.18762L7.56262 1.71887L7.18762 1.40637H7.65637L7.81262 0.937622ZM9.06262 2.81262L9.21887 3.28137H9.68762L9.31262 3.59387L9.43762 4.06262L9.06262 3.78137L8.68762 4.06262L8.81262 3.59387L8.43762 3.28137H8.90637L9.06262 2.81262ZM6.56262 2.81262L6.71887 3.28137H7.18762L6.81262 3.59387L6.93762 4.06262L6.56262 3.78137L6.18762 4.06262L6.31262 3.59387L5.93762 3.28137H6.40637L6.56262 2.81262ZM7.81262 4.68762L7.96887 5.15637H8.43762L8.06262 5.46887L8.18762 5.93762L7.81262 5.65637L7.43762 5.93762L7.56262 5.46887L7.18762 5.15637H7.65637L7.81262 4.68762ZM5.31262 4.68762L5.46887 5.15637H5.93762L5.56262 5.46887L5.68762 5.93762L5.31262 5.65637L4.93762 5.93762L5.06262 5.46887L4.68762 5.15637H5.15637L5.31262 4.68762ZM2.81262 4.68762L2.96887 5.15637H3.43762L3.06262 5.46887L3.18762 5.93762L2.81262 5.65637L2.43762 5.93762L2.56262 5.46887L2.18762 5.15637H2.65637L2.81262 4.68762ZM9.06262 6.56262L9.21887 7.03137H9.68762L9.31262 7.34387L9.43762 7.81262L9.06262 7.53137L8.68762 7.81262L8.81262 7.34387L8.43762 7.03137H8.90637L9.06262 6.56262ZM6.56262 6.56262L6.71887 7.03137H7.18762L6.81262 7.34387L6.93762 7.81262L6.56262 7.53137L6.18762 7.81262L6.31262 7.34387L5.93762 7.03137H6.40637L6.56262 6.56262ZM4.06262 6.56262L4.21887 7.03137H4.68762L4.31262 7.34387L4.43762 7.81262L4.06262 7.53137L3.68762 7.81262L3.81262 7.34387L3.43762 7.03137H3.90637L4.06262 6.56262ZM7.81262 8.43762L7.96887 8.90637H8.43762L8.06262 9.21887L8.18762 9.68762L7.81262 9.40637L7.43762 9.68762L7.56262 9.21887L7.18762 8.90637H7.65637L7.81262 8.43762ZM5.31262 8.43762L5.46887 8.90637H5.93762L5.56262 9.21887L5.68762 9.68762L5.31262 9.40637L4.93762 9.68762L5.06262 9.21887L4.68762 8.90637H5.15637L5.31262 8.43762ZM2.81262 8.43762L2.96887 8.90637H3.43762L3.06262 9.21887L3.18762 9.68762L2.81262 9.40637L2.43762 9.68762L2.56262 9.21887L2.18762 8.90637H2.65637L2.81262 8.43762ZM3.68762 4.06262L4.06262 3.78137L4.43762 4.06262L4.28137 3.59387L4.65637 3.28137H4.18762L4.06262 2.81262L3.90637 3.28137H3.46887L3.84387 3.56262L3.68762 4.06262ZM1.18762 7.81262L1.56262 7.53137L1.93762 7.81262L1.78137 7.34387L2.15637 7.03137H1.71887L1.56262 6.56262L1.40637 7.03137H1.09387C1.09387 7.06262 1.06262 7.09387 1.06262 7.12512L1.31262 7.31262L1.18762 7.81262Z" fill="#F9F9F9"/>
</g>
<defs>
<clipPath id="clip0_18_1540">
<rect width="20" height="20" fill="white"/>
</clipPath>
</defs>
</svg>
