<svg width="28" height="28" viewBox="0 0 28 28" fill="none" xmlns="http://www.w3.org/2000/svg">
<g clip-path="url(#clip0_18_1536)">
<path d="M26.9062 11.7249C25.8562 5.55613 20.475 0.874878 14 0.874878C7.525 0.874878 2.14375 5.55613 1.09375 11.7249L14 5.24988L26.9062 11.7249ZM1.09375 16.2749C2.14375 22.4436 7.525 27.1249 14 27.1249C20.475 27.1249 25.8562 22.4436 26.9062 16.2749L14 22.7499L1.09375 16.2749Z" fill="#229E46"/>
<path d="M14 5.24988L1.09375 11.7249C0.9625 12.4686 0.875 13.2124 0.875 13.9999C0.875 14.7874 0.9625 15.5311 1.09375 16.2749L14 22.7499L26.9062 16.2749C27.0375 15.5311 27.125 14.7874 27.125 13.9999C27.125 13.2124 27.0375 12.4686 26.9062 11.7249L14 5.24988Z" fill="#F8E50C"/>
<path d="M11.375 12.4249C9.975 12.4249 8.6625 12.7312 7.48125 13.2562C7.4375 13.5187 7.4375 13.7374 7.4375 13.9999C7.4375 17.6312 10.3687 20.5624 14 20.5624C16.45 20.5624 18.5937 19.2062 19.7312 17.2374C18.1125 14.3937 14.9625 12.4249 11.375 12.4249Z" fill="#2B49A3"/>
<path d="M20.475 15.0499C20.5187 14.6999 20.5625 14.3499 20.5625 13.9999C20.5625 10.3686 17.6312 7.43738 14 7.43738C11.4187 7.43738 9.1875 8.92488 8.09375 11.1124C9.14375 10.8061 10.2375 10.6311 11.375 10.6311C15.0937 10.6311 18.375 12.3811 20.475 15.0499Z" fill="#2B49A3"/>
<path d="M11.3748 10.6312C10.2373 10.6312 9.14358 10.8062 8.09358 11.1125C7.78733 11.7687 7.56858 12.4687 7.48108 13.2562C8.66233 12.7312 9.97483 12.425 11.3748 12.425C14.9623 12.425 18.1123 14.35 19.7311 17.1937C20.1248 16.5375 20.3436 15.7937 20.4748 15.05C18.3748 12.3812 15.0936 10.6312 11.3748 10.6312Z" fill="#F9F9F9"/>
<path d="M9.625 14.4375C9.86662 14.4375 10.0625 14.2416 10.0625 14C10.0625 13.7584 9.86662 13.5625 9.625 13.5625C9.38338 13.5625 9.1875 13.7584 9.1875 14C9.1875 14.2416 9.38338 14.4375 9.625 14.4375Z" fill="#F9F9F9"/>
<path d="M11.375 17.0625C11.6166 17.0625 11.8125 16.8666 11.8125 16.625C11.8125 16.3834 11.6166 16.1875 11.375 16.1875C11.1334 16.1875 10.9375 16.3834 10.9375 16.625C10.9375 16.8666 11.1334 17.0625 11.375 17.0625Z" fill="#F9F9F9"/>
<path d="M14 17.0625C14.2416 17.0625 14.4375 16.8666 14.4375 16.625C14.4375 16.3834 14.2416 16.1875 14 16.1875C13.7584 16.1875 13.5625 16.3834 13.5625 16.625C13.5625 16.8666 13.7584 17.0625 14 17.0625Z" fill="#F9F9F9"/>
<path d="M14 18.8125C14.2416 18.8125 14.4375 18.6166 14.4375 18.375C14.4375 18.1334 14.2416 17.9375 14 17.9375C13.7584 17.9375 13.5625 18.1334 13.5625 18.375C13.5625 18.6166 13.7584 18.8125 14 18.8125Z" fill="#F9F9F9"/>
<path d="M17.5 17.0625C17.7416 17.0625 17.9375 16.8666 17.9375 16.625C17.9375 16.3834 17.7416 16.1875 17.5 16.1875C17.2584 16.1875 17.0625 16.3834 17.0625 16.625C17.0625 16.8666 17.2584 17.0625 17.5 17.0625Z" fill="#F9F9F9"/>
<path d="M17.5 18.8125C17.7416 18.8125 17.9375 18.6166 17.9375 18.375C17.9375 18.1334 17.7416 17.9375 17.5 17.9375C17.2584 17.9375 17.0625 18.1334 17.0625 18.375C17.0625 18.6166 17.2584 18.8125 17.5 18.8125Z" fill="#F9F9F9"/>
<path d="M15.75 17.9375C15.9916 17.9375 16.1875 17.7416 16.1875 17.5C16.1875 17.2584 15.9916 17.0625 15.75 17.0625C15.5084 17.0625 15.3125 17.2584 15.3125 17.5C15.3125 17.7416 15.5084 17.9375 15.75 17.9375Z" fill="#F9F9F9"/>
<path d="M9.625 16.1875C9.86662 16.1875 10.0625 15.9916 10.0625 15.75C10.0625 15.5084 9.86662 15.3125 9.625 15.3125C9.38338 15.3125 9.1875 15.5084 9.1875 15.75C9.1875 15.9916 9.38338 16.1875 9.625 16.1875Z" fill="#F9F9F9"/>
</g>
<defs>
<clipPath id="clip0_18_1536">
<rect width="28" height="28" fill="white"/>
</clipPath>
</defs>
</svg>
