<svg width="28" height="28" viewBox="0 0 28 28" fill="none" xmlns="http://www.w3.org/2000/svg">
<g clip-path="url(#clip0_18_1530)">
<path d="M13.9564 0.875C8.2689 0.875 3.41265 4.55 1.6189 9.625H26.3814C24.5439 4.55 19.6876 0.875 13.9564 0.875Z" fill="#F25B25"/>
<path d="M13.9564 27.125C19.6876 27.125 24.5439 23.4937 26.3376 18.375H1.6189C3.41265 23.4937 8.2689 27.125 13.9564 27.125Z" fill="#016934"/>
<path d="M1.61875 9.62524C1.1375 10.9815 0.875 12.469 0.875 14.0002C0.875 15.5315 1.1375 17.019 1.61875 18.3752H26.3812C26.8625 17.019 27.125 15.5315 27.125 14.0002C27.125 12.469 26.8625 10.9815 26.3812 9.62524H1.61875Z" fill="#F9F9F9"/>
<path d="M13.9561 17.4996C15.8891 17.4996 17.4561 15.9326 17.4561 13.9996C17.4561 12.0666 15.8891 10.4996 13.9561 10.4996C12.0231 10.4996 10.4561 12.0666 10.4561 13.9996C10.4561 15.9326 12.0231 17.4996 13.9561 17.4996Z" fill="#2C2C6F"/>
<path d="M13.9561 17.0625C15.6474 17.0625 17.0186 15.6914 17.0186 14C17.0186 12.3086 15.6474 10.9375 13.9561 10.9375C12.2647 10.9375 10.8936 12.3086 10.8936 14C10.8936 15.6914 12.2647 17.0625 13.9561 17.0625Z" fill="#F9F9F9"/>
<path d="M12.8186 11.375C12.9394 11.375 13.0374 11.2771 13.0374 11.1562C13.0374 11.0354 12.9394 10.9375 12.8186 10.9375C12.6978 10.9375 12.5999 11.0354 12.5999 11.1562C12.5999 11.2771 12.6978 11.375 12.8186 11.375Z" fill="#2C2C6F"/>
<path d="M12.1189 11.7687C12.2397 11.7687 12.3376 11.6707 12.3376 11.5499C12.3376 11.4291 12.2397 11.3312 12.1189 11.3312C11.9981 11.3312 11.9001 11.4291 11.9001 11.5499C11.9001 11.6707 11.9981 11.7687 12.1189 11.7687Z" fill="#2C2C6F"/>
<path d="M11.5502 12.3373C11.671 12.3373 11.7689 12.2393 11.7689 12.1185C11.7689 11.9977 11.671 11.8998 11.5502 11.8998C11.4294 11.8998 11.3314 11.9977 11.3314 12.1185C11.3314 12.2393 11.4294 12.3373 11.5502 12.3373Z" fill="#2C2C6F"/>
<path d="M11.1562 13.0377C11.2771 13.0377 11.375 12.9398 11.375 12.819C11.375 12.6982 11.2771 12.6002 11.1562 12.6002C11.0354 12.6002 10.9375 12.6982 10.9375 12.819C10.9375 12.9398 11.0354 13.0377 11.1562 13.0377Z" fill="#2C2C6F"/>
<path d="M10.9375 13.825C11.0583 13.825 11.1562 13.727 11.1562 13.6062C11.1562 13.4854 11.0583 13.3875 10.9375 13.3875C10.8167 13.3875 10.7188 13.4854 10.7188 13.6062C10.7188 13.727 10.8167 13.825 10.9375 13.825Z" fill="#2C2C6F"/>
<path d="M10.9375 14.6128C11.0583 14.6128 11.1562 14.5149 11.1562 14.394C11.1562 14.2732 11.0583 14.1753 10.9375 14.1753C10.8167 14.1753 10.7188 14.2732 10.7188 14.394C10.7188 14.5149 10.8167 14.6128 10.9375 14.6128Z" fill="#2C2C6F"/>
<path d="M11.1562 15.4001C11.2771 15.4001 11.375 15.3022 11.375 15.1814C11.375 15.0606 11.2771 14.9626 11.1562 14.9626C11.0354 14.9626 10.9375 15.0606 10.9375 15.1814C10.9375 15.3022 11.0354 15.4001 11.1562 15.4001Z" fill="#2C2C6F"/>
<path d="M11.5502 16.1001C11.671 16.1001 11.7689 16.0022 11.7689 15.8813C11.7689 15.7605 11.671 15.6626 11.5502 15.6626C11.4294 15.6626 11.3314 15.7605 11.3314 15.8813C11.3314 16.0022 11.4294 16.1001 11.5502 16.1001Z" fill="#2C2C6F"/>
<path d="M12.1189 16.6683C12.2397 16.6683 12.3376 16.5704 12.3376 16.4496C12.3376 16.3288 12.2397 16.2308 12.1189 16.2308C11.9981 16.2308 11.9001 16.3288 11.9001 16.4496C11.9001 16.5704 11.9981 16.6683 12.1189 16.6683Z" fill="#2C2C6F"/>
<path d="M12.8186 17.062C12.9394 17.062 13.0374 16.9641 13.0374 16.8433C13.0374 16.7224 12.9394 16.6245 12.8186 16.6245C12.6978 16.6245 12.5999 16.7224 12.5999 16.8433C12.5999 16.9641 12.6978 17.062 12.8186 17.062Z" fill="#2C2C6F"/>
<path d="M13.5625 17.2374C13.6833 17.2374 13.7812 17.1395 13.7812 17.0187C13.7812 16.8979 13.6833 16.7999 13.5625 16.7999C13.4417 16.7999 13.3438 16.8979 13.3438 17.0187C13.3438 17.1395 13.4417 17.2374 13.5625 17.2374Z" fill="#2C2C6F"/>
<path d="M14.1752 17.0624C14.1752 16.9312 14.2627 16.8437 14.3502 16.7999C14.4814 16.7999 14.5689 16.8874 14.6127 16.9749C14.6127 17.1062 14.5252 17.1937 14.4377 17.2374C14.2627 17.2812 14.1752 17.1937 14.1752 17.0624Z" fill="#2C2C6F"/>
<path d="M15.1377 17.062C15.2585 17.062 15.3564 16.9641 15.3564 16.8433C15.3564 16.7224 15.2585 16.6245 15.1377 16.6245C15.0169 16.6245 14.9189 16.7224 14.9189 16.8433C14.9189 16.9641 15.0169 17.062 15.1377 17.062Z" fill="#2C2C6F"/>
<path d="M15.8376 16.6683C15.9585 16.6683 16.0564 16.5704 16.0564 16.4496C16.0564 16.3288 15.9585 16.2308 15.8376 16.2308C15.7168 16.2308 15.6189 16.3288 15.6189 16.4496C15.6189 16.5704 15.7168 16.6683 15.8376 16.6683Z" fill="#2C2C6F"/>
<path d="M16.4062 16.1001C16.5271 16.1001 16.625 16.0022 16.625 15.8813C16.625 15.7605 16.5271 15.6626 16.4062 15.6626C16.2854 15.6626 16.1875 15.7605 16.1875 15.8813C16.1875 16.0022 16.2854 16.1001 16.4062 16.1001Z" fill="#2C2C6F"/>
<path d="M16.8002 15.4001C16.921 15.4001 17.0189 15.3022 17.0189 15.1814C17.0189 15.0606 16.921 14.9626 16.8002 14.9626C16.6794 14.9626 16.5814 15.0606 16.5814 15.1814C16.5814 15.3022 16.6794 15.4001 16.8002 15.4001Z" fill="#2C2C6F"/>
<path d="M17.0189 14.6128C17.1397 14.6128 17.2377 14.5149 17.2377 14.394C17.2377 14.2732 17.1397 14.1753 17.0189 14.1753C16.8981 14.1753 16.8002 14.2732 16.8002 14.394C16.8002 14.5149 16.8981 14.6128 17.0189 14.6128Z" fill="#2C2C6F"/>
<path d="M17.0186 13.825C16.8874 13.825 16.7999 13.7375 16.7561 13.65C16.7561 13.5187 16.8436 13.4312 16.9311 13.3875C17.0624 13.3875 17.1499 13.475 17.1936 13.5625C17.2374 13.6937 17.1499 13.7812 17.0186 13.825Z" fill="#2C2C6F"/>
<path d="M16.8002 13.0377C16.921 13.0377 17.0189 12.9398 17.0189 12.819C17.0189 12.6982 16.921 12.6002 16.8002 12.6002C16.6794 12.6002 16.5814 12.6982 16.5814 12.819C16.5814 12.9398 16.6794 13.0377 16.8002 13.0377Z" fill="#2C2C6F"/>
<path d="M16.4062 12.3373C16.5271 12.3373 16.625 12.2393 16.625 12.1185C16.625 11.9977 16.5271 11.8998 16.4062 11.8998C16.2854 11.8998 16.1875 11.9977 16.1875 12.1185C16.1875 12.2393 16.2854 12.3373 16.4062 12.3373Z" fill="#2C2C6F"/>
<path d="M15.8376 11.7687C15.9585 11.7687 16.0564 11.6707 16.0564 11.5499C16.0564 11.4291 15.9585 11.3312 15.8376 11.3312C15.7168 11.3312 15.6189 11.4291 15.6189 11.5499C15.6189 11.6707 15.7168 11.7687 15.8376 11.7687Z" fill="#2C2C6F"/>
<path d="M15.3563 11.2437C15.3125 11.3749 15.1812 11.4187 15.05 11.3749C14.9187 11.3312 14.875 11.1999 14.9188 11.0687C14.9625 10.9374 15.0938 10.8937 15.225 10.9374C15.3563 11.0249 15.4 11.1562 15.3563 11.2437ZM14.5688 10.9812C14.5688 11.1124 14.4375 11.1999 14.3062 11.1562C14.175 11.1562 14.0875 11.0249 14.1313 10.8937C14.1313 10.7624 14.2625 10.6749 14.3937 10.7187C14.525 10.7624 14.6125 10.8937 14.5688 10.9812ZM13.7812 10.9374C13.7812 11.0687 13.6938 11.1562 13.6063 11.1999C13.475 11.1999 13.3875 11.1124 13.3438 11.0249C13.3438 10.8937 13.4312 10.8062 13.5187 10.7624C13.65 10.7187 13.7812 10.8062 13.7812 10.9374Z" fill="#2C2C6F"/>
<path d="M13.9564 14.6563C14.3189 14.6563 14.6127 14.3624 14.6127 14C14.6127 13.6376 14.3189 13.3438 13.9564 13.3438C13.594 13.3438 13.3002 13.6376 13.3002 14C13.3002 14.3624 13.594 14.6563 13.9564 14.6563Z" fill="#2C2C6F"/>
<path d="M13.9561 10.9375L13.8686 12.8187L13.9561 14L14.0873 12.8187L13.9561 10.9375ZM13.1686 11.025L13.5623 12.9063L13.9561 14L13.7811 12.8187L13.1686 11.025Z" fill="#2C2C6F"/>
<path d="M12.425 11.3312L13.3 13.0374L13.9562 13.9999L13.475 12.9062L12.425 11.3312ZM11.8125 11.8124L13.0812 13.2562L13.9562 13.9999L13.2125 13.0812L11.8125 11.8124Z" fill="#2C2C6F"/>
<path d="M11.3314 12.4689L12.9064 13.5189L13.9564 14.0001L12.9939 13.3001L11.3314 12.4689Z" fill="#2C2C6F"/>
<path d="M11.0252 13.2125L12.8189 13.7813L13.9564 14L12.8627 13.6063L11.0252 13.2125ZM10.8939 14L12.8189 14.0875L13.9564 14L12.8189 13.9125L10.8939 14Z" fill="#2C2C6F"/>
<path d="M11.0251 14.7875L12.8626 14.3938L13.9564 14L12.8189 14.2188L11.0251 14.7875ZM11.3314 15.5313L12.9939 14.7L13.9564 14L12.9064 14.4812L11.3314 15.5313Z" fill="#2C2C6F"/>
<path d="M11.8125 16.1438L13.2125 14.9187L13.9562 14L13.0812 14.7438L11.8125 16.1438ZM12.425 16.6687L13.475 15.05L13.9562 14L13.3 14.9625L12.425 16.6687Z" fill="#2C2C6F"/>
<path d="M13.1686 16.975L13.7811 15.1813L13.9561 14L13.5623 15.0938L13.1686 16.975ZM13.9561 17.0625L14.0873 15.1813L13.9561 14L13.8686 15.1813L13.9561 17.0625ZM14.7436 16.975L14.3936 15.0938L13.9561 14L14.1748 15.1813L14.7436 16.975Z" fill="#2C2C6F"/>
<path d="M15.4877 16.6687L14.6564 14.9625L13.9564 14L14.4814 15.0938L15.4877 16.6687ZM16.1439 16.1438L14.8752 14.7438L13.9564 14L14.7439 14.9187L16.1439 16.1438Z" fill="#2C2C6F"/>
<path d="M16.6252 15.5313L15.0502 14.4813L13.9564 14L14.9189 14.7L16.6252 15.5313ZM16.9314 14.7875L15.1377 14.2188L13.9564 14L15.0939 14.3938L16.9314 14.7875ZM17.0189 14L15.1377 13.8688L13.9564 14L15.1377 14.0875L17.0189 14ZM16.9314 13.2125L15.0939 13.6063L13.9564 14L15.1377 13.7813L16.9314 13.2125Z" fill="#2C2C6F"/>
<path d="M16.6252 12.4687L14.9189 13.3L13.9564 14L15.0502 13.5187L16.6252 12.4687ZM16.1439 11.8562L14.7439 13.0812L13.9564 14L14.8752 13.2562L16.1439 11.8562Z" fill="#2C2C6F"/>
<path d="M15.4877 11.3312L14.4814 12.9499L13.9564 13.9999L14.6564 13.0374L15.4877 11.3312Z" fill="#2C2C6F"/>
<path d="M14.7877 11.0247L14.1752 12.8184L13.9564 13.9997L14.3939 12.9059L14.7877 11.0247Z" fill="#2C2C6F"/>
</g>
<defs>
<clipPath id="clip0_18_1530">
<rect width="28" height="28" fill="white"/>
</clipPath>
</defs>
</svg>
