<svg preserveAspectRatio="none" width="100%" height="100%" overflow="visible" style="display: block;" viewBox="0 0 20 20" fill="none" xmlns="http://www.w3.org/2000/svg">
<g id="discord">
<path id="Vector" d="M16.0586 4.44162C14.9503 3.92495 13.7503 3.54995 12.5003 3.33328C12.4783 3.3336 12.4574 3.34258 12.442 3.35828C12.292 3.63328 12.117 3.99162 12.0003 4.26662C10.6745 4.06674 9.32614 4.06674 8.0003 4.26662C7.88364 3.98328 7.70864 3.63328 7.5503 3.35828C7.54197 3.34162 7.51697 3.33328 7.49197 3.33328C6.24197 3.54995 5.0503 3.92495 3.93363 4.44162C3.9253 4.44162 3.91697 4.44995 3.90863 4.45828C1.64197 7.84995 1.01697 11.1499 1.3253 14.4166C1.3253 14.4333 1.33363 14.4499 1.3503 14.4583C2.8503 15.5583 4.29197 16.2249 5.71697 16.6666C5.74197 16.6749 5.76697 16.6666 5.7753 16.6499C6.10863 16.1916 6.40863 15.7083 6.66697 15.1999C6.68363 15.1666 6.66697 15.1333 6.63363 15.1249C6.15863 14.9416 5.70863 14.725 5.26697 14.475C5.23363 14.4583 5.23363 14.4083 5.25863 14.3833C5.3503 14.3166 5.44197 14.2416 5.53363 14.1749C5.5503 14.1583 5.5753 14.1583 5.59197 14.1666C8.45863 15.4749 11.5503 15.4749 14.3836 14.1666C14.4003 14.1583 14.4253 14.1583 14.442 14.1749C14.5336 14.2499 14.6253 14.3166 14.717 14.3916C14.7503 14.4166 14.7503 14.4666 14.7086 14.4833C14.2753 14.7416 13.817 14.9499 13.342 15.1333C13.3086 15.1416 13.3003 15.1833 13.3086 15.2083C13.5753 15.7166 13.8753 16.1999 14.2003 16.6583C14.2253 16.6666 14.2503 16.6749 14.2753 16.6666C15.7086 16.2249 17.1503 15.5583 18.6503 14.4583C18.667 14.4499 18.6753 14.4333 18.6753 14.4166C19.042 10.6416 18.067 7.36662 16.092 4.45828C16.0836 4.44995 16.0753 4.44162 16.0586 4.44162ZM7.1003 12.4249C6.24197 12.4249 5.5253 11.6333 5.5253 10.6583C5.5253 9.68328 6.2253 8.89162 7.1003 8.89162C7.98364 8.89162 8.68363 9.69162 8.6753 10.6583C8.6753 11.6333 7.9753 12.4249 7.1003 12.4249ZM12.9086 12.4249C12.0503 12.4249 11.3336 11.6333 11.3336 10.6583C11.3336 9.68328 12.0336 8.89162 12.9086 8.89162C13.792 8.89162 14.492 9.69162 14.4836 10.6583C14.4836 11.6333 13.792 12.4249 12.9086 12.4249Z" fill="var(--fill-0, white)" fill-opacity="0.7"/>
</g>
</svg>
