<svg preserveAspectRatio="none" width="100%" height="100%" overflow="visible" style="display: block;" viewBox="0 0 24 24" fill="none" xmlns="http://www.w3.org/2000/svg">
<g id="US" clip-path="url(#clip0_0_121)">
<path id="Vector" d="M18 2.47524C16.2375 1.38774 14.2125 0.750242 12 0.750242V2.47524H18Z" fill="var(--fill-0, #B22234)"/>
<path id="Vector_2" d="M12 4.20032H20.1C19.4625 3.56282 18.75 2.96282 18 2.47532H12V4.20032Z" fill="var(--fill-0, #F9F9F9)"/>
<path id="Vector_3" d="M12 5.9254H21.4875C21.075 5.2879 20.625 4.7254 20.1375 4.2004H12V5.9254Z" fill="var(--fill-0, #B22234)"/>
<path id="Vector_4" d="M12 7.65011H22.3875C22.125 7.05011 21.825 6.45011 21.4875 5.92511H12V7.65011Z" fill="var(--fill-0, #F9F9F9)"/>
<path id="Vector_5" d="M12 9.37555H22.95C22.8 8.77555 22.6125 8.21305 22.3875 7.65055H12V9.37555Z" fill="var(--fill-0, #B22234)"/>
<path id="Vector_6" d="M12 11.1374H23.2125C23.175 10.5374 23.0625 9.97489 22.95 9.41239H12V11.1374Z" fill="var(--fill-0, #F9F9F9)"/>
<path id="Vector_7" d="M23.2125 11.1382H12V12.0007H0.750012C0.750012 12.3007 0.750012 12.5632 0.787512 12.8632H23.2125C23.25 12.5632 23.25 12.3007 23.25 12.0007C23.25 11.7007 23.25 11.4007 23.2125 11.1382Z" fill="var(--fill-0, #B22234)"/>
<path id="Vector_8" d="M1.04985 14.5875H22.9499C23.0999 14.025 23.1749 13.4625 23.2124 12.8625H0.787354C0.824854 13.425 0.937354 14.025 1.04985 14.5875Z" fill="var(--fill-0, #F9F9F9)"/>
<path id="Vector_9" d="M1.61248 16.3126H22.3875C22.6125 15.7501 22.8 15.1876 22.95 14.5876H1.04998C1.19998 15.1876 1.38748 15.7501 1.61248 16.3126Z" fill="var(--fill-0, #B22234)"/>
<path id="Vector_10" d="M2.51248 18.0377H21.4875C21.825 17.4752 22.125 16.9127 22.3875 16.3127H1.61248C1.87498 16.9127 2.17498 17.4752 2.51248 18.0377Z" fill="var(--fill-0, #F9F9F9)"/>
<path id="Vector_11" d="M3.86249 19.7628H20.1375C20.625 19.2378 21.1125 18.6378 21.4875 18.0378H2.51249C2.88749 18.6753 3.37499 19.2378 3.86249 19.7628Z" fill="var(--fill-0, #B22234)"/>
<path id="Vector_12" d="M5.96249 21.4882H18.0375C18.825 21.0007 19.5 20.4007 20.1375 19.7632H3.86249C4.49999 20.4382 5.21249 21.0007 5.96249 21.4882Z" fill="var(--fill-0, #F9F9F9)"/>
<path id="Vector_13" d="M11.9998 23.2501C14.2123 23.2501 16.2748 22.6126 18.0373 21.4876H5.96228C7.72478 22.6126 9.78728 23.2501 11.9998 23.2501Z" fill="var(--fill-0, #B22234)"/>
<path id="Vector_14" d="M6.00001 2.47524C5.21251 2.96274 4.50001 3.56274 3.86251 4.20024C3.33751 4.72524 2.88751 5.32524 2.51251 5.92524C2.17501 6.48774 1.83751 7.05024 1.61251 7.65024C1.38751 8.21274 1.20001 8.77524 1.05001 9.37524C0.900012 9.93774 0.825012 10.5002 0.787512 11.1002C0.750012 11.4002 0.750012 11.7002 0.750012 12.0002H12V0.750242C9.78751 0.750242 7.76251 1.38774 6.00001 2.47524Z" fill="var(--fill-0, #3C3B6E)"/>
<path id="Vector_15" d="M9.37514 1.12518L9.56264 1.68768H10.1251L9.67514 2.06268L9.82514 2.62518L9.37514 2.28768L8.92514 2.62518L9.07515 2.06268L8.62514 1.68768H9.18764L9.37514 1.12518ZM10.8751 3.37518L11.0626 3.93768H11.6251L11.1751 4.31268L11.3251 4.87518L10.8751 4.53768L10.4251 4.87518L10.5751 4.31268L10.1251 3.93768H10.6876L10.8751 3.37518ZM7.87515 3.37518L8.06265 3.93768H8.62514L8.17514 4.31268L8.32515 4.87518L7.87515 4.53768L7.42514 4.87518L7.57515 4.31268L7.12515 3.93768H7.68765L7.87515 3.37518ZM9.37514 5.62518L9.56264 6.18768H10.1251L9.67514 6.56268L9.82514 7.12518L9.37514 6.78768L8.92514 7.12518L9.07515 6.56268L8.62514 6.18768H9.18764L9.37514 5.62518ZM6.37515 5.62518L6.56265 6.18768H7.12515L6.67515 6.56268L6.82515 7.12518L6.37515 6.78768L5.92515 7.12518L6.07515 6.56268L5.62515 6.18768H6.18765L6.37515 5.62518ZM3.37515 5.62518L3.56265 6.18768H4.12515L3.67515 6.56268L3.82515 7.12518L3.37515 6.78768L2.92515 7.12518L3.07515 6.56268L2.62515 6.18768H3.18765L3.37515 5.62518ZM10.8751 7.87518L11.0626 8.43768H11.6251L11.1751 8.81268L11.3251 9.37518L10.8751 9.03768L10.4251 9.37518L10.5751 8.81268L10.1251 8.43768H10.6876L10.8751 7.87518ZM7.87515 7.87518L8.06265 8.43768H8.62514L8.17514 8.81268L8.32515 9.37518L7.87515 9.03768L7.42514 9.37518L7.57515 8.81268L7.12515 8.43768H7.68765L7.87515 7.87518ZM4.87515 7.87518L5.06265 8.43768H5.62515L5.17515 8.81268L5.32515 9.37518L4.87515 9.03768L4.42515 9.37518L4.57515 8.81268L4.12515 8.43768H4.68765L4.87515 7.87518ZM9.37514 10.1252L9.56264 10.6877H10.1251L9.67514 11.0627L9.82514 11.6252L9.37514 11.2877L8.92514 11.6252L9.07515 11.0627L8.62514 10.6877H9.18764L9.37514 10.1252ZM6.37515 10.1252L6.56265 10.6877H7.12515L6.67515 11.0627L6.82515 11.6252L6.37515 11.2877L5.92515 11.6252L6.07515 11.0627L5.62515 10.6877H6.18765L6.37515 10.1252ZM3.37515 10.1252L3.56265 10.6877H4.12515L3.67515 11.0627L3.82515 11.6252L3.37515 11.2877L2.92515 11.6252L3.07515 11.0627L2.62515 10.6877H3.18765L3.37515 10.1252ZM4.42515 4.87518L4.87515 4.53768L5.32515 4.87518L5.13765 4.31268L5.58765 3.93768H5.02515L4.87515 3.37518L4.68765 3.93768H4.16265L4.61265 4.27518L4.42515 4.87518ZM1.42515 9.37518L1.87515 9.03768L2.32515 9.37518L2.13765 8.81268L2.58765 8.43768H2.06265L1.87515 7.87518L1.68765 8.43768H1.31265C1.31265 8.47518 1.27515 8.51268 1.27515 8.55018L1.57515 8.77518L1.42515 9.37518Z" fill="var(--fill-0, #F9F9F9)"/>
</g>
<defs>
<clipPath id="clip0_0_121">
<rect width="24" height="24" fill="white"/>
</clipPath>
</defs>
</svg>
