<svg preserveAspectRatio="none" width="100%" height="100%" overflow="visible" style="display: block;" viewBox="0 0 20 20" fill="none" xmlns="http://www.w3.org/2000/svg">
<g id="Github">
<path id="Vector" fill-rule="evenodd" clip-rule="evenodd" d="M10.0048 1.66675C8.01685 1.66787 6.09689 2.39037 4.60142 3.70008C3.08529 5.02949 2.0845 6.84938 1.77392 8.84175C1.45648 10.8425 1.84446 12.8914 2.87142 14.6376C3.88364 16.3628 5.4799 17.6688 7.37142 18.3192C7.79142 18.3984 7.94059 18.1334 7.94059 17.9076C7.94059 17.7034 7.93226 17.0309 7.92892 16.3176C5.61226 16.8342 5.12392 15.3092 5.12392 15.3092C4.97395 14.7959 4.64602 14.3527 4.19892 14.0592C3.44309 13.5284 4.25726 13.5417 4.25726 13.5417C4.52142 13.5784 4.77392 13.6776 4.99475 13.8301C5.21642 13.9826 5.40059 14.1851 5.53392 14.4217C5.64642 14.6326 5.79892 14.8184 5.98225 14.9676C6.2553 15.1934 6.59099 15.3301 6.94411 15.3593C7.29723 15.3885 7.65083 15.3088 7.95725 15.1309C7.99475 14.6976 8.18225 14.2926 8.48642 13.9892C6.63725 13.7734 4.69142 13.0409 4.69142 9.76425C4.67854 8.91934 4.98542 8.10077 5.55059 7.47258C5.29559 6.73518 5.3241 5.92928 5.63059 5.21175C5.63059 5.21175 6.32975 4.98258 7.92142 6.08675C9.28508 5.70406 10.7278 5.70406 12.0914 6.08675C13.6798 4.98258 14.3748 5.21175 14.3748 5.21175C14.6831 5.92675 14.7131 6.73508 14.4589 7.47258C15.0235 8.10103 15.3298 8.91956 15.3164 9.76425C15.3164 13.0467 13.3673 13.7684 11.5131 13.9792C11.7132 14.1882 11.867 14.437 11.9645 14.7093C12.062 14.9817 12.101 15.2716 12.0789 15.5601C12.0789 16.7034 12.0689 17.6242 12.0689 17.9051C12.0689 18.1317 12.2189 18.3984 12.6414 18.3151C14.5296 17.6619 16.1221 16.3552 17.1314 14.6309C18.1565 12.8862 18.5433 10.8394 18.2256 8.84092C17.9148 6.85038 16.9149 5.03216 15.4006 3.70341C13.9078 2.39438 11.9911 1.67081 10.0056 1.66675H10.0048Z" fill="var(--fill-0, white)" fill-opacity="0.7"/>
</g>
</svg>
