<svg preserveAspectRatio="none" width="100%" height="100%" overflow="visible" style="display: block;" viewBox="0 0 20 20" fill="none" xmlns="http://www.w3.org/2000/svg">
<g id="Linked">
<path id="Vector" d="M5.58172 18H2.26458V7.31771H5.58172V18ZM3.92115 5.86057C2.86058 5.86057 2.00001 4.98171 2.00001 3.92114C2.00001 3.41162 2.20241 2.92297 2.5627 2.56269C2.92298 2.20241 3.41163 2 3.92115 2C4.43067 2 4.91932 2.20241 5.27961 2.56269C5.63989 2.92297 5.84229 3.41162 5.84229 3.92114C5.84229 4.98171 4.98172 5.86057 3.92115 5.86057ZM17.9966 18H14.6869V12.8C14.6869 11.5606 14.6617 9.97143 12.9623 9.97143C11.2377 9.97143 10.9732 11.3177 10.9732 12.7109V18H7.65944V7.31771H10.8406V8.77486H10.8869C11.3297 7.93543 12.4114 7.04971 14.0252 7.04971C17.3823 7.04971 17.9994 9.26057 17.9994 12.132V18H17.9966Z" fill="var(--fill-0, white)" fill-opacity="0.7"/>
</g>
</svg>
