<svg preserveAspectRatio="none" width="100%" height="100%" overflow="visible" style="display: block;" viewBox="0 0 20 20" fill="none" xmlns="http://www.w3.org/2000/svg">
<g id="Xcom">
<path id="Vector" fill-rule="evenodd" clip-rule="evenodd" d="M11.0757 7.8766L16.621 2H18.4589L18.4515 2.00812L11.8924 8.96117L17.8974 16.9309C17.9699 17.0269 18.0152 17.1406 18.0285 17.2602C18.0418 17.3797 18.0226 17.5007 17.9729 17.6102C17.9232 17.7198 17.8448 17.8138 17.7461 17.8826C17.6474 17.9513 17.5319 17.9921 17.4119 18.0007H13.6521C13.5568 17.9942 13.464 17.9671 13.3801 17.9214C13.2961 17.8757 13.2231 17.8124 13.1659 17.7359L8.94048 12.1278L3.42762 18.0007H1.54106L8.12374 11.0432L2.11876 3.0735C2.0438 2.97424 1.99802 2.85603 1.98657 2.73216C1.97513 2.6083 1.99847 2.4837 2.05398 2.37238C2.10949 2.26106 2.19495 2.16744 2.30077 2.10204C2.40658 2.03665 2.52854 2.00208 2.65293 2.00221H6.31612C6.52639 2.00221 6.72412 2.10108 6.85029 2.26856L11.0757 7.8766ZM10.5127 9.3522C10.4942 9.33035 10.477 9.30744 10.4611 9.28359L5.98263 3.33985H3.99426L14.0335 16.6646H16.0226L10.5127 9.3522Z" fill="var(--fill-0, white)" fill-opacity="0.7"/>
</g>
</svg>
