<svg preserveAspectRatio="none" width="100%" height="100%" overflow="visible" style="display: block;" viewBox="0 0 21.5514 21.5514" fill="none" xmlns="http://www.w3.org/2000/svg">
<g id="mobile-proxy">
<path id="Union" d="M15.4548 1.79595C16.9085 1.79595 18.0844 2.97446 18.0847 4.42681V17.1241C18.0845 18.5773 16.9058 19.7559 15.4528 19.7559H6.09442C4.64056 19.7556 3.46668 18.5758 3.46649 17.1241L3.46747 4.42681C3.46776 2.97456 4.64308 1.79625 6.09637 1.79595H15.4548ZM9.94012 15.9961C9.59412 15.9961 9.31317 16.2771 9.31317 16.6231C9.31325 16.969 9.59417 17.2491 9.94012 17.2491H11.611C11.9567 17.2488 12.2369 16.9689 12.237 16.6231C12.237 16.2773 11.9568 15.9964 11.611 15.9961H9.94012ZM6.52704 9.51763C6.45444 9.5271 6.38422 9.55104 6.32098 9.58794C6.25785 9.62478 6.20281 9.67405 6.15887 9.73247C6.11497 9.79093 6.08295 9.85786 6.06512 9.92876C6.05846 9.95533 6.05402 9.98264 6.05145 10.0098C6.04993 10.0259 6.04861 10.0424 6.04852 10.0586C6.04847 10.0697 6.0489 10.0808 6.0495 10.0918C6.05049 10.11 6.05258 10.1285 6.05536 10.1465C6.17072 11.0191 6.52568 11.8424 7.08075 12.5254C7.1162 12.5691 7.15226 12.6121 7.18915 12.6543C7.69355 13.232 8.33022 13.6792 9.04462 13.9581C9.0958 13.978 9.14792 13.9984 9.19989 14.0166C10.0304 14.308 10.9257 14.3633 11.7858 14.1768C12.646 13.9902 13.4377 13.5683 14.0729 12.959V13.7354C14.0731 14.0386 14.3195 14.2842 14.6227 14.2842C14.7681 14.2841 14.9075 14.2268 15.0104 14.1241C15.1134 14.0211 15.1715 13.881 15.1716 13.7354V11.5372C15.1714 11.4099 15.1267 11.2862 15.0466 11.1885C15.0352 11.1747 15.0232 11.1612 15.0104 11.1485C14.9075 11.0458 14.7681 10.9884 14.6227 10.9883H12.4245C12.2789 10.9884 12.1388 11.0455 12.0358 11.1485C11.9329 11.2514 11.8758 11.3916 11.8757 11.5372C11.8757 11.6828 11.9329 11.8228 12.0358 11.9258C12.1388 12.0288 12.2788 12.0869 12.4245 12.087H13.3913C12.9108 12.5769 12.3025 12.9221 11.6354 13.0831C10.9681 13.244 10.2681 13.2142 9.61688 12.9971C8.96592 12.78 8.38897 12.3845 7.95184 11.8555C7.93452 11.8346 7.91691 11.8133 7.90009 11.792C7.84533 11.7227 7.79329 11.651 7.74384 11.5782C7.69443 11.5054 7.64808 11.4305 7.60419 11.3545C7.54099 11.2452 7.48285 11.1327 7.43134 11.0176C7.41859 10.9891 7.40624 10.9605 7.39423 10.9317C7.38561 10.911 7.37707 10.89 7.36884 10.8692C7.27364 10.6284 7.20434 10.3766 7.1618 10.1192C7.15898 10.1021 7.1556 10.0846 7.15301 10.0674C7.14985 10.0464 7.14703 10.0251 7.14423 10.004C7.13641 9.93127 7.11417 9.8609 7.0788 9.79692C7.04337 9.73286 6.99568 9.67621 6.93817 9.63091C6.88066 9.5856 6.81442 9.55269 6.74384 9.53325C6.67329 9.51382 6.59959 9.50818 6.52704 9.51763ZM14.8259 9.50298C14.8569 9.51036 14.8879 9.51571 14.9196 9.51763C14.8879 9.51563 14.8568 9.51034 14.8259 9.50298ZM10.7761 4.76079C9.54724 4.75942 8.36582 5.23514 7.48016 6.08696V5.31059C7.48015 5.23856 7.46571 5.1672 7.43817 5.10063C7.41056 5.03397 7.37005 4.97294 7.31903 4.92192C7.26803 4.87094 7.20695 4.83038 7.14032 4.80278C7.07377 4.77528 7.00237 4.76079 6.93036 4.76079C6.85834 4.7608 6.78695 4.77526 6.7204 4.80278C6.65375 4.83039 6.5927 4.87092 6.54169 4.92192C6.49067 4.97294 6.45016 5.03397 6.42255 5.10063C6.39502 5.16719 6.38057 5.23857 6.38055 5.31059V7.50884C6.38068 7.65425 6.43893 7.79363 6.54169 7.89653C6.64471 7.99956 6.78466 8.05765 6.93036 8.05766H9.12762C9.25204 8.05766 9.37285 8.01597 9.46942 7.9395C9.48595 7.92641 9.50124 7.91159 9.5163 7.89653C9.53925 7.87357 9.5595 7.84858 9.57782 7.82231C9.62514 7.75445 9.65448 7.67652 9.66766 7.59477C9.67082 7.575 9.67546 7.55536 9.67645 7.5352C9.67688 7.52643 9.67742 7.51766 9.67743 7.50884C9.67743 7.47595 9.67341 7.44311 9.66766 7.41118C9.66608 7.40229 9.66382 7.3936 9.6618 7.38481C9.65571 7.35849 9.64823 7.33273 9.63837 7.30766C9.61104 7.23805 9.57017 7.1741 9.5163 7.12016C9.41326 7.01713 9.27334 6.95903 9.12762 6.95903L8.16083 6.95806C8.18262 6.93585 8.2059 6.91521 8.22821 6.8936C8.2723 6.8509 8.31693 6.80892 8.36298 6.7686C8.39676 6.73902 8.4317 6.71093 8.46649 6.68266C8.51066 6.64677 8.55554 6.61192 8.60126 6.57817C8.63225 6.5553 8.66334 6.53266 8.69501 6.51079C8.74267 6.47788 8.79138 6.44666 8.84051 6.41606C8.87626 6.39381 8.91145 6.37066 8.94794 6.34966C9.02857 6.30323 9.11102 6.25995 9.19501 6.21977C9.21897 6.20831 9.24306 6.19654 9.26727 6.18559C9.39481 6.12796 9.52599 6.07803 9.65985 6.0352C9.66603 6.03323 9.67222 6.03129 9.67841 6.02934C9.7572 6.0046 9.83703 5.98237 9.91766 5.96294C10.5848 5.80213 11.2842 5.83181 11.9352 6.04888C12.5862 6.26598 13.1632 6.66153 13.6003 7.19048C14.0374 7.7195 14.3174 8.36078 14.4079 9.04106C14.4172 9.11258 14.4403 9.18167 14.4763 9.24419C14.482 9.2541 14.4895 9.263 14.4958 9.27251C14.5082 9.29127 14.5203 9.31013 14.5349 9.3272C14.5597 9.35604 14.5877 9.38208 14.6179 9.40532C14.6243 9.4103 14.6317 9.41431 14.6384 9.41899C14.6508 9.42769 14.6634 9.4358 14.6765 9.44341L14.9225 9.51763C14.9563 9.51948 14.9905 9.52006 15.0241 9.51567C15.0956 9.50631 15.1648 9.48327 15.2272 9.44731C15.2898 9.41131 15.3444 9.3629 15.3884 9.30571C15.4268 9.25577 15.4559 9.19952 15.4753 9.1397C15.478 9.13114 15.4807 9.12203 15.4831 9.11333C15.5018 9.04365 15.5071 8.97101 15.4977 8.89946C15.3465 7.75451 14.7842 6.70372 13.9157 5.94243C13.0471 5.18112 11.9311 4.76062 10.7761 4.76079ZM14.6804 9.44634C14.7092 9.46281 14.7398 9.47535 14.7712 9.48638C14.7398 9.47534 14.7092 9.46284 14.6804 9.44634Z" fill="var(--fill-0, #FE766C)"/>
</g>
</svg>
