<svg preserveAspectRatio="none" width="100%" height="100%" overflow="visible" style="display: block;" viewBox="0 0 58 24" fill="none" xmlns="http://www.w3.org/2000/svg">
<g id="Stripe wordmark - Blurple 1" clip-path="url(#clip0_0_289)">
<path id="Vector" fill-rule="evenodd" clip-rule="evenodd" d="M58 12.384C58 8.28802 56.0022 5.05602 52.1839 5.05602C48.3494 5.05602 46.0294 8.28802 46.0294 12.352C46.0294 17.168 48.7683 19.6 52.6994 19.6C54.6167 19.6 56.0667 19.168 57.1622 18.56V15.36C56.0667 15.904 54.81 16.24 53.215 16.24C51.6522 16.24 50.2667 15.696 50.0894 13.808H57.9678C57.9678 13.6 58 12.768 58 12.384ZM50.0411 10.864C50.0411 9.05602 51.1528 8.30402 52.1678 8.30402C53.1506 8.30402 54.1978 9.05602 54.1978 10.864H50.0411Z" fill="var(--fill-0, white)"/>
<path id="Vector_2" fill-rule="evenodd" clip-rule="evenodd" d="M39.8106 5.05602C38.2317 5.05602 37.2167 5.79202 36.6528 6.30402L36.4433 5.31202H32.8989V23.968L36.9267 23.12L36.9428 18.592C37.5228 19.008 38.3767 19.6 39.7944 19.6C42.6783 19.6 45.3044 17.296 45.3044 12.224C45.2883 7.58402 42.63 5.05602 39.8106 5.05602ZM38.8439 16.08C37.8933 16.08 37.3294 15.744 36.9428 15.328L36.9267 9.39202C37.3456 8.92802 37.9256 8.60802 38.8439 8.60802C40.31 8.60802 41.325 10.24 41.325 12.336C41.325 14.48 40.3261 16.08 38.8439 16.08Z" fill="var(--fill-0, white)"/>
<path id="Vector_3" fill-rule="evenodd" clip-rule="evenodd" d="M27.3567 4.112L31.4006 3.248V0L27.3567 0.848V4.112Z" fill="var(--fill-0, white)"/>
<path id="Vector_4" d="M31.4006 5.328H27.3567V19.328H31.4006V5.328Z" fill="var(--fill-0, white)"/>
<path id="Vector_5" fill-rule="evenodd" clip-rule="evenodd" d="M23.0228 6.512L22.765 5.328H19.285V19.328H23.3128V9.84C24.2633 8.608 25.8744 8.832 26.3739 9.008V5.328C25.8583 5.136 23.9733 4.784 23.0228 6.512Z" fill="var(--fill-0, white)"/>
<path id="Vector_6" fill-rule="evenodd" clip-rule="evenodd" d="M14.9672 1.85602L11.0361 2.68802L11.02 15.504C11.02 17.872 12.8083 19.616 15.1928 19.616C16.5139 19.616 17.4806 19.376 18.0122 19.088V15.84C17.4967 16.048 14.9511 16.784 14.9511 14.416V8.73602H18.0122V5.32802H14.9511L14.9672 1.85602Z" fill="var(--fill-0, white)"/>
<path id="Vector_7" fill-rule="evenodd" clip-rule="evenodd" d="M4.07611 9.39202C4.07611 8.76802 4.59167 8.52802 5.44556 8.52802C6.67 8.52802 8.21667 8.89602 9.44111 9.55202V5.79202C8.10389 5.26402 6.78278 5.05602 5.44556 5.05602C2.175 5.05602 0 6.75202 0 9.58402C0 14 6.12222 13.296 6.12222 15.2C6.12222 15.936 5.47778 16.176 4.57556 16.176C3.23833 16.176 1.53056 15.632 0.177222 14.896V18.704C1.67556 19.344 3.19 19.616 4.57556 19.616C7.92667 19.616 10.2306 17.968 10.2306 15.104C10.2144 10.336 4.07611 11.184 4.07611 9.39202Z" fill="var(--fill-0, white)"/>
</g>
<defs>
<clipPath id="clip0_0_289">
<rect width="58" height="24" fill="white"/>
</clipPath>
</defs>
</svg>
