<svg preserveAspectRatio="none" width="100%" height="100%" overflow="visible" style="display: block;" viewBox="0 0 24 24" fill="none" xmlns="http://www.w3.org/2000/svg">
<g id="SEO icon">
<path id="Vector" fill-rule="evenodd" clip-rule="evenodd" d="M9.24512 14.4531C12.1304 14.4531 14.46 12.1251 14.46 9.24121C14.46 6.35732 12.1304 4.0293 9.24512 4.0293C6.35998 4.02948 4.03027 6.35743 4.03027 9.24121C4.03027 12.125 6.35998 14.4529 9.24512 14.4531ZM14.46 15.8398L19.1377 20.5156C19.5165 20.8942 20.1368 20.8942 20.5156 20.5156C20.8943 20.1371 20.8944 19.5182 20.5156 19.1396L15.8486 14.4531H14.9707L14.9131 14.3975L14.6006 14.0967L14.4648 13.9648L14.5879 13.8223C15.2651 13.036 15.7599 12.1092 16.0371 11.1094C16.3143 10.1098 16.3679 9.06139 16.1924 8.03906C15.6832 5.03 13.167 2.62385 10.1348 2.25586C9.06813 2.12106 7.98399 2.23213 6.9668 2.58008C5.94945 2.92809 5.02498 3.50379 4.26465 4.26367C3.50437 5.02354 2.92826 5.9472 2.58008 6.96387C2.27546 7.85333 2.15244 8.79331 2.2168 9.72852L2.25586 10.1299C2.61274 13.0655 4.8826 15.5172 7.76172 16.1299L8.04199 16.1836L8.42676 16.2383C9.32682 16.342 10.2398 16.2718 11.1152 16.0293C12.1156 15.7522 13.0423 15.2569 13.8291 14.5801L13.9727 14.457L14.1035 14.5937L14.46 14.9629V15.8398Z" fill="var(--fill-0, #747CFB)"/>
</g>
</svg>
