<svg preserveAspectRatio="none" width="100%" height="100%" overflow="visible" style="display: block;" viewBox="0 0 24 24" fill="none" xmlns="http://www.w3.org/2000/svg">
<g id="Geo-targeting icon">
<path id="Vector" d="M12.0002 4.3332C9.89011 4.3332 8.07005 5.08659 6.57832 6.57832C5.08659 8.07005 4.3332 9.89011 4.3332 12.0002C4.33325 14.1101 5.08683 15.9295 6.57832 17.4211C8.07005 18.9128 9.89011 19.6662 12.0002 19.6662C14.1102 19.6662 15.9294 18.9128 17.4211 17.4211C18.9128 15.9294 19.6662 14.1102 19.6662 12.0002C19.6662 9.89011 18.9128 8.07005 17.4211 6.57832C15.9295 5.08683 14.1101 4.33325 12.0002 4.3332ZM12.0002 8.66621C12.9219 8.66626 13.6945 8.98742 14.3537 9.64668C15.0129 10.3059 15.3332 11.0785 15.3332 12.0002C15.3332 12.9219 15.013 13.6945 14.3537 14.3537C13.6945 15.013 12.9219 15.3332 12.0002 15.3332C11.0785 15.3332 10.3059 15.0129 9.64668 14.3537C8.98742 13.6945 8.66626 12.9219 8.66621 12.0002C8.66621 11.0784 8.98737 10.306 9.64668 9.64668C10.306 8.98737 11.0784 8.66621 12.0002 8.66621ZM11.6662 20.3537L11.0744 20.2873C9.14243 20.0709 7.49437 19.2768 6.10859 17.8918C4.72291 16.5067 3.92788 14.8586 3.71211 12.926L3.64668 12.3332H2.05C1.86597 12.3332 1.7171 12.1842 1.71699 12.0002C1.71699 11.8161 1.8659 11.6662 2.05 11.6662H3.6457L3.71211 11.0744C3.9285 9.14239 4.72372 7.49445 6.10957 6.10859C7.49542 4.72274 9.14318 3.92786 11.0744 3.71211L11.6662 3.64668V2.05C11.6662 1.8659 11.8161 1.71699 12.0002 1.71699C12.1842 1.7171 12.3332 1.86597 12.3332 2.05V3.6457L12.926 3.71211C14.8579 3.92852 16.506 4.72374 17.8918 6.10957C19.2775 7.49539 20.0716 9.14326 20.2873 11.0744L20.3537 11.6662H21.9504C22.1343 11.6664 22.2834 11.8162 22.2834 12.0002C22.2833 12.1841 22.1342 12.333 21.9504 12.3332H20.3537L20.2873 12.926C20.0709 14.858 19.2769 16.506 17.8918 17.8918C16.5067 19.2775 14.8586 20.0715 12.926 20.2873L12.3332 20.3537V21.9504C12.333 22.1342 12.1841 22.2833 12.0002 22.2834C11.8162 22.2834 11.6664 22.1343 11.6662 21.9504V20.3537Z" fill="var(--fill-0, #D92928)" stroke="var(--stroke-0, #D92928)" stroke-width="1.33333"/>
</g>
</svg>
