<svg preserveAspectRatio="none" width="100%" height="100%" overflow="visible" style="display: block;" viewBox="0 0 24 24" fill="none" xmlns="http://www.w3.org/2000/svg">
<g id="mobile-proxy">
<path id="Union" d="M17.2109 2C18.8299 2.0001 20.1396 3.31315 20.1396 4.93066V19.0703C20.1393 20.6884 18.8268 21.9998 17.209 22H6.78711C5.16803 21.9997 3.86065 20.687 3.86035 19.0703L3.86133 4.93066C3.86141 3.3132 5.17048 2.00033 6.78906 2H17.2109ZM11.0693 17.8135C10.684 17.8135 10.3711 18.1264 10.3711 18.5117C10.3711 18.897 10.684 19.209 11.0693 19.209H12.9297C13.3148 19.2088 13.6279 18.8969 13.6279 18.5117C13.6279 18.1265 13.3148 17.8137 12.9297 17.8135H11.0693ZM7.26855 10.5996C7.1877 10.6102 7.10949 10.6366 7.03906 10.6777C6.96875 10.7188 6.9073 10.7738 6.8584 10.8389C6.8095 10.904 6.77372 10.9786 6.75391 11.0576C6.74658 11.0869 6.74211 11.1165 6.73926 11.1465C6.73755 11.1645 6.73643 11.1831 6.73633 11.2012C6.73626 11.2135 6.73663 11.2259 6.7373 11.2383C6.73841 11.2585 6.74009 11.2788 6.74316 11.2988C6.8716 12.2706 7.26657 13.1885 7.88477 13.9492C7.92427 13.9978 7.96476 14.0457 8.00586 14.0928C8.5677 14.7362 9.27746 15.2344 10.0732 15.5449C10.1301 15.5671 10.1874 15.5882 10.2451 15.6084C11.1701 15.9329 12.167 15.9949 13.125 15.7871C14.0829 15.5793 14.9645 15.1101 15.6719 14.4316V15.2959C15.672 15.6334 15.9457 15.907 16.2832 15.9072C16.4455 15.9072 16.6021 15.8433 16.7168 15.7285C16.8314 15.6138 16.8955 15.458 16.8955 15.2959V12.8486C16.8954 12.7068 16.8461 12.5688 16.7568 12.46C16.7442 12.4445 16.731 12.4302 16.7168 12.416C16.6021 12.3013 16.4455 12.2363 16.2832 12.2363H13.8359C13.6738 12.2364 13.518 12.3014 13.4033 12.416C13.2888 12.5307 13.2246 12.6865 13.2246 12.8486C13.2247 13.0108 13.2887 13.1666 13.4033 13.2812C13.518 13.3959 13.6738 13.4599 13.8359 13.46H14.9131C14.3779 14.0057 13.7001 14.3901 12.957 14.5693C12.2139 14.7486 11.4352 14.7154 10.71 14.4736C9.98484 14.2319 9.34235 13.7914 8.85547 13.2021C8.83618 13.1788 8.81659 13.1556 8.79785 13.1318C8.73685 13.0546 8.67911 12.9747 8.62402 12.8936C8.56904 12.8126 8.51663 12.73 8.46777 12.6455C8.39735 12.5237 8.33377 12.3978 8.27637 12.2695C8.26214 12.2377 8.24778 12.206 8.23438 12.1738C8.22473 12.1507 8.21527 12.1268 8.20605 12.1035C8.10011 11.8355 8.02295 11.556 7.97559 11.2695C7.97243 11.2504 7.96871 11.2311 7.96582 11.2119C7.96226 11.1883 7.9592 11.1643 7.95605 11.1406C7.94735 11.0597 7.92222 10.9814 7.88281 10.9102C7.84341 10.8389 7.79049 10.776 7.72656 10.7256C7.66251 10.6751 7.58837 10.6379 7.50977 10.6162C7.43125 10.5946 7.3493 10.5891 7.26855 10.5996ZM16.4922 10.5811C16.5343 10.5924 16.5777 10.5974 16.6211 10.5996C16.5777 10.5973 16.5343 10.5914 16.4922 10.5801V10.5811ZM12.001 5.30176C10.6323 5.30015 9.31647 5.83042 8.33008 6.7793V5.91406C8.33007 5.83372 8.31395 5.75391 8.2832 5.67969C8.25246 5.60553 8.20716 5.53821 8.15039 5.48145C8.09361 5.42467 8.02633 5.37937 7.95215 5.34863C7.87792 5.31788 7.79812 5.30176 7.71777 5.30176C7.63744 5.30176 7.55761 5.31789 7.4834 5.34863C7.40924 5.37938 7.34193 5.42468 7.28516 5.48145C7.22838 5.53822 7.18309 5.60552 7.15234 5.67969C7.1216 5.75391 7.10645 5.83372 7.10645 5.91406V8.36133C7.10645 8.52355 7.17047 8.67921 7.28516 8.79395C7.39989 8.90868 7.55552 8.97362 7.71777 8.97363H10.165C10.3036 8.97363 10.4374 8.92599 10.5449 8.84082C10.5633 8.82627 10.5809 8.81068 10.5977 8.79395C10.6239 8.7677 10.6472 8.7391 10.668 8.70898C10.7199 8.63375 10.7521 8.5474 10.7666 8.45703C10.77 8.4353 10.7753 8.41375 10.7764 8.3916C10.7769 8.38152 10.7764 8.37049 10.7764 8.36035C10.7763 8.31147 10.7691 8.26359 10.7578 8.2168C10.7412 8.14879 10.7143 8.08395 10.6758 8.02539C10.674 8.02267 10.6718 8.02027 10.6699 8.01758C10.6485 7.98621 10.6249 7.95594 10.5977 7.92871C10.5116 7.84276 10.4027 7.78522 10.2852 7.76172C10.2459 7.75385 10.2057 7.75 10.165 7.75L9.08789 7.74902C9.15203 7.68366 9.21901 7.6212 9.28711 7.56055C9.29331 7.55503 9.29943 7.54943 9.30566 7.54395C9.51368 7.36093 9.73912 7.20007 9.97852 7.06348C9.98549 7.0595 9.99202 7.05472 9.99902 7.05078C10.0778 7.00647 10.1587 6.96479 10.2402 6.92578C10.2667 6.9131 10.2935 6.90078 10.3203 6.88867C10.4609 6.82514 10.6054 6.77003 10.7529 6.72266C10.762 6.71973 10.7711 6.71673 10.7803 6.71387C10.8672 6.68663 10.9551 6.66206 11.0439 6.64062C11.787 6.46152 12.566 6.49458 13.291 6.73633C14.016 6.97809 14.6587 7.41871 15.1455 8.00781C15.389 8.30256 15.5889 8.6285 15.7402 8.97559C15.8537 9.23565 15.9397 9.50766 15.9971 9.78711C16.0161 9.88011 16.0323 9.97482 16.0449 10.0693C16.0553 10.1488 16.0811 10.2254 16.1211 10.2949C16.1394 10.3268 16.1609 10.3568 16.1846 10.3848C16.2127 10.4177 16.2439 10.4482 16.2783 10.4746C16.2993 10.4907 16.322 10.5044 16.3447 10.5176L16.6221 10.5996C16.6582 10.6014 16.6944 10.6014 16.7305 10.5967C16.8102 10.5863 16.8874 10.5606 16.957 10.5205C17.0266 10.4804 17.0877 10.4269 17.1367 10.3633C17.1796 10.3076 17.2118 10.2445 17.2334 10.1777C17.2364 10.1684 17.2396 10.1589 17.2422 10.1494C17.263 10.072 17.2691 9.99068 17.2588 9.91113C17.0904 8.63605 16.4642 7.46499 15.4971 6.61719C14.5299 5.76943 13.2871 5.30162 12.001 5.30176ZM16.3564 10.5244C16.368 10.5307 16.3797 10.5364 16.3916 10.542C16.3797 10.5364 16.3679 10.5308 16.3564 10.5244Z" fill="var(--fill-0, #FE766C)"/>
</g>
</svg>
