<svg preserveAspectRatio="none" width="100%" height="100%" overflow="visible" style="display: block;" viewBox="0 0 24 24" fill="none" xmlns="http://www.w3.org/2000/svg">
<g id="Frame">
<path id="Vector" fill-rule="evenodd" clip-rule="evenodd" d="M16.7501 8V9.25H17.3301C17.865 9.25 18.3101 9.25 18.6751 9.28C19.0551 9.311 19.4111 9.378 19.7481 9.55C20.2656 9.81367 20.6864 10.2344 20.9501 10.752C21.1221 11.089 21.1901 11.446 21.2201 11.826C21.2501 12.19 21.2501 12.636 21.2501 13.17V17.83C21.2501 18.365 21.2501 18.81 21.2201 19.175C21.1901 19.555 21.1221 19.912 20.9501 20.249C20.6867 20.7664 20.2662 21.1872 19.7491 21.451C19.4111 21.623 19.0551 21.69 18.6751 21.721C18.3101 21.751 17.8651 21.751 17.3311 21.751H6.67006C6.1351 21.751 5.69004 21.751 5.32506 21.721C4.94506 21.69 4.58906 21.623 4.25206 21.451C3.73451 21.1873 3.31373 20.7666 3.05006 20.249C2.87806 19.912 2.81006 19.555 2.78006 19.175C2.75006 18.811 2.75006 18.365 2.75006 17.831V13.17C2.75006 12.636 2.75006 12.19 2.78006 11.826C2.81006 11.446 2.87806 11.089 3.05006 10.752C3.31373 10.2344 3.73451 9.81367 4.25206 9.55C4.58906 9.378 4.94506 9.311 5.32506 9.28C5.69005 9.25 6.13504 9.25 6.67002 9.25H7.25006V8C7.25006 6.522 7.58006 5.099 8.35706 4.025C9.15706 2.918 10.3871 2.25 12.0001 2.25C13.6131 2.25 14.8421 2.918 15.6431 4.025C16.4201 5.099 16.7501 6.522 16.7501 8ZM8.75006 8C8.75006 6.717 9.04006 5.64 9.57206 4.904C10.0811 4.2 10.8521 3.75 12.0001 3.75C13.1481 3.75 13.9181 4.201 14.4281 4.904C14.9601 5.64 15.2501 6.717 15.2501 8V9.25H8.75006V8ZM12.0001 17.5363C11.4823 17.5363 11.0626 17.1166 11.0626 16.5988V13.6875C11.0626 13.1697 11.4823 12.75 12.0001 12.75C12.5178 12.75 12.9376 13.1697 12.9376 13.6875V16.5988C12.9376 17.1166 12.5178 17.5363 12.0001 17.5363Z" fill="var(--fill-0, #F98416)"/>
</g>
</svg>
