<svg preserveAspectRatio="none" width="100%" height="100%" overflow="visible" style="display: block;" viewBox="0 0 24 24" fill="none" xmlns="http://www.w3.org/2000/svg">
<g id="resident-proxy">
<path id="Vector" fill-rule="evenodd" clip-rule="evenodd" d="M21 17.7318C21 20.0891 19.0856 22 16.724 22H7.276C4.91464 21.9998 3.00005 20.0889 3 17.7318V9.97547C3.00014 9.04923 3.4121 8.16498 4.12746 7.57818L10.1 2.68239C10.6347 2.24112 11.3067 2 12.0006 2C12.6939 2.00009 13.3643 2.24289 13.8988 2.68358L19.8725 7.57818C20.5894 8.16507 20.9999 9.04911 21 9.97547V17.7318ZM14.4452 16.0244C14.9175 16.0244 15.3006 16.4068 15.3006 16.8782C15.3006 17.3497 14.9175 17.7321 14.4452 17.7321H9.55834C9.08603 17.7321 8.7029 17.3497 8.7029 16.8782C8.7029 16.4068 9.08603 16.0244 9.55834 16.0244H14.4452Z" fill="var(--fill-0, #777FFB)"/>
</g>
</svg>
