<svg preserveAspectRatio="none" width="100%" height="100%" overflow="visible" style="display: block;" viewBox="0 0 28 28" fill="none" xmlns="http://www.w3.org/2000/svg">
<g id="Logo-icon">
<path id="Rectangle 240648768" d="M14 0.274414C21.5804 0.274414 27.7256 6.41955 27.7256 14C27.7256 21.5804 21.5804 27.7256 14 27.7256H0.274414V14C0.274414 6.41955 6.41955 0.274414 14 0.274414Z" fill="url(#paint0_linear_0_161)" stroke="url(#paint1_linear_0_161)" stroke-width="0.548765"/>
<g id="Logo icon" filter="url(#filter0_i_0_161)">
<path id="Vector" fill-rule="evenodd" clip-rule="evenodd" d="M20.8326 13.5448C21.7083 13.3289 22.5 12.7868 23.146 12.0032C22.191 10.988 20.9386 10.3833 19.5741 10.5976C20.1907 9.80405 20.4483 8.77106 20.3767 7.64504C19.2192 7.57116 18.1616 7.84981 17.3603 8.50335C17.6226 7.0964 17.0192 5.8144 15.9762 4.83341C15.1867 5.48421 14.6431 6.28232 14.4306 7.16435C12.7852 6.30222 11.1488 6.27677 9.46755 7.81686C9.3903 7.88763 9.31296 7.9617 9.23552 8.03914C6.26791 11.0067 5.45475 18.1884 7.64385 20.3775C9.83296 22.5666 17.0146 21.7534 19.9822 18.7858C21.7608 17.0073 21.7587 15.2813 20.8326 13.5448Z" fill="var(--fill-0, #FAFAFA)"/>
</g>
</g>
<defs>
<filter id="filter0_i_0_161" x="6.40208" y="4.83341" width="17.1848" height="18.5497" filterUnits="userSpaceOnUse" color-interpolation-filters="sRGB">
<feFlood flood-opacity="0" result="BackgroundImageFix"/>
<feBlend mode="normal" in="SourceGraphic" in2="BackgroundImageFix" result="shape"/>
<feColorMatrix in="SourceAlpha" type="matrix" values="0 0 0 0 0 0 0 0 0 0 0 0 0 0 0 0 0 0 127 0" result="hardAlpha"/>
<feOffset dx="0.440972" dy="1.76389"/>
<feGaussianBlur stdDeviation="0.881944"/>
<feComposite in2="hardAlpha" operator="arithmetic" k2="-1" k3="1"/>
<feColorMatrix type="matrix" values="0 0 0 0 0.372549 0 0 0 0 0.384314 0 0 0 0 0.890196 0 0 0 0.25 0"/>
<feBlend mode="normal" in2="shape" result="effect1_innerShadow_0_161"/>
</filter>
<linearGradient id="paint0_linear_0_161" x1="4.32099" y1="1.46914" x2="19.0605" y2="28.9452" gradientUnits="userSpaceOnUse">
<stop stop-color="#5356E1"/>
<stop offset="1" stop-color="#C8C9F3"/>
</linearGradient>
<linearGradient id="paint1_linear_0_161" x1="1.59091" y1="-3.18182" x2="31.2839" y2="36.4691" gradientUnits="userSpaceOnUse">
<stop stop-color="#8C8FEB"/>
<stop offset="1" stop-color="#B1BAF7"/>
</linearGradient>
</defs>
</svg>
