<svg preserveAspectRatio="none" width="100%" height="100%" overflow="visible" style="display: block;" viewBox="0 0 112 112" fill="none" xmlns="http://www.w3.org/2000/svg">
<g id="Frame">
<path id="Vector" d="M73.3764 35.2464C74.761 37.4202 76.7513 39.6667 79.3287 39.6667C81.906 39.6667 84.0706 37.5419 83.4256 35.0466C80.8272 24.9941 69.8328 20.2153 60.662 18.998V14C60.662 11.4227 58.5727 9.33333 55.9953 9.33333C53.418 9.33333 51.3287 11.4227 51.3287 14V18.998C40.852 20.3887 27.9953 26.4273 27.9953 39.6667C27.9953 52.2947 40.4367 58.8607 51.3287 60.34V83.5333C46.3131 82.6639 41.0302 80.4525 38.64 76.7445C37.2436 74.5782 35.2393 72.3333 32.662 72.3333C30.0847 72.3333 27.9236 74.4607 28.587 76.9511C31.0612 86.2386 40.933 91.7549 51.3287 93.0347V98C51.3287 100.577 53.418 102.667 55.9953 102.667C58.5727 102.667 60.662 100.577 60.662 98V93.0067C71.1387 91.616 83.9953 85.5727 83.9953 72.3333C83.9953 59.094 71.1387 53.0553 60.662 51.6647V28.4667C65.3352 29.3064 70.908 31.3711 73.3764 35.2464ZM37.3287 39.6667C37.3287 32.858 45.122 29.582 51.3287 28.4667V50.862C44.9307 49.6813 37.3287 46.186 37.3287 39.6667ZM74.662 72.3333C74.662 79.142 66.8687 82.418 60.662 83.5333V61.1333C66.8687 62.2487 74.662 65.5247 74.662 72.3333Z" fill="var(--fill-0, black)" fill-opacity="0.1"/>
</g>
</svg>
