<svg preserveAspectRatio="none" width="100%" height="100%" overflow="visible" style="display: block;" viewBox="0 0 112 112" fill="none" xmlns="http://www.w3.org/2000/svg">
<g id="Frame">
<path id="Vector" d="M89.0026 69.1973C87.1782 71.0216 84.22 71.0206 82.3969 69.1949C80.5757 67.3711 80.5767 64.4165 82.3993 62.5939L85.6986 59.2946C90.0428 54.9122 92.4741 48.9874 92.4606 42.8168C92.4471 36.6461 89.9898 30.732 85.6265 26.3687C81.2632 22.0054 75.3491 19.5481 69.1784 19.5346C63.0078 19.5211 57.083 21.9524 52.7006 26.2966L49.3966 29.6006C47.5744 31.4228 44.6201 31.4228 42.7979 29.6006C40.9757 27.7784 40.9757 24.8241 42.7979 23.0019L46.0972 19.7026C52.2237 13.5761 60.5331 10.1343 69.1972 10.1343C77.8614 10.1343 86.1707 13.5761 92.2972 19.7026C98.4237 25.8291 101.866 34.1384 101.866 42.8026C101.866 51.4668 98.4237 59.7761 92.2972 65.9026L89.0026 69.1973ZM69.1955 82.3999C71.0184 84.2215 71.019 87.1762 69.1967 88.9985L65.8979 92.2973C59.7714 98.4238 51.4621 101.866 42.7979 101.866C34.1337 101.866 25.8244 98.4238 19.6979 92.2973C13.5714 86.1708 10.1296 77.8615 10.1296 69.1973C10.1296 60.5331 13.5714 52.2238 19.6979 46.0973L22.9967 42.8009C24.8215 40.9773 27.7794 40.9788 29.6023 42.8044C31.4239 44.6285 31.4229 47.5837 29.6 49.4065L26.3012 52.7053C22.0166 57.0993 19.6357 63.0044 19.6741 69.1414C19.7126 75.2785 22.1674 81.1533 26.5067 85.4932C30.846 89.8331 36.7205 92.2887 42.8575 92.3281C48.9946 92.3674 54.9 89.9873 59.2946 85.7033L62.6003 82.3999C64.4219 80.5796 67.3739 80.5796 69.1955 82.3999ZM65.8958 39.5007C67.7191 37.6774 70.6753 37.6774 72.4987 39.5007C74.3222 41.3242 74.322 44.2808 72.4982 46.104L46.0975 72.4973C44.2751 74.3192 41.3209 74.319 39.4988 72.4968C37.6765 70.6745 37.6765 67.72 39.4988 65.8977L65.8958 39.5007Z" fill="var(--fill-0, black)" fill-opacity="0.1"/>
</g>
</svg>
