<svg preserveAspectRatio="none" width="100%" height="100%" overflow="visible" style="display: block;" viewBox="0 0 112 112" fill="none" xmlns="http://www.w3.org/2000/svg">
<g id="Frame">
<path id="Vector" d="M79.3333 102.667C75.4444 102.667 72.1389 101.306 69.4167 98.5833C66.6944 95.8611 65.3333 92.5556 65.3333 88.6667C65.3333 88.2 65.45 87.1111 65.6833 85.4L32.9 66.2667C31.6556 67.4333 30.2167 68.348 28.5833 69.0107C26.95 69.6733 25.2 70.0031 23.3333 70C19.4444 70 16.1389 68.6389 13.4167 65.9167C10.6944 63.1944 9.33333 59.8889 9.33333 56C9.33333 52.1111 10.6944 48.8056 13.4167 46.0833C16.1389 43.3611 19.4444 42 23.3333 42C25.2 42 26.95 42.3313 28.5833 42.994C30.2167 43.6567 31.6556 44.5698 32.9 45.7333L65.6833 26.6C65.5278 26.0556 65.4313 25.5313 65.394 25.0273C65.3567 24.5233 65.3364 23.9587 65.3333 23.3333C65.3333 19.4444 66.6944 16.1389 69.4167 13.4167C72.1389 10.6944 75.4444 9.33333 79.3333 9.33333C83.2222 9.33333 86.5278 10.6944 89.25 13.4167C91.9722 16.1389 93.3333 19.4444 93.3333 23.3333C93.3333 27.2222 91.9722 30.5278 89.25 33.25C86.5278 35.9722 83.2222 37.3333 79.3333 37.3333C77.4667 37.3333 75.7167 37.002 74.0833 36.3393C72.45 35.6767 71.0111 34.7636 69.7667 33.6L36.9833 52.7333C37.1389 53.2778 37.2369 53.8036 37.2773 54.3107C37.3178 54.8178 37.3364 55.3809 37.3333 56C37.3302 56.6191 37.3116 57.1838 37.2773 57.694C37.2431 58.2042 37.1451 58.7284 36.9833 59.2667L69.7667 78.4C71.0111 77.2333 72.45 76.3202 74.0833 75.6607C75.7167 75.0011 77.4667 74.6698 79.3333 74.6667C83.2222 74.6667 86.5278 76.0278 89.25 78.75C91.9722 81.4722 93.3333 84.7778 93.3333 88.6667C93.3333 92.5556 91.9722 95.8611 89.25 98.5833C86.5278 101.306 83.2222 102.667 79.3333 102.667Z" fill="var(--fill-0, black)" fill-opacity="0.1"/>
</g>
</svg>
