<svg preserveAspectRatio="none" width="100%" height="100%" overflow="visible" style="display: block;" viewBox="0 0 20 20" fill="none" xmlns="http://www.w3.org/2000/svg">
<g id="Frame">
<path id="Vector" d="M9.55777 14.1103L6.31395 16.0644C6.17065 16.1556 6.02083 16.1947 5.8645 16.1817C5.70817 16.1687 5.57139 16.1165 5.45414 16.0254C5.33689 15.9342 5.2457 15.8203 5.18056 15.6838C5.11543 15.5473 5.1024 15.394 5.14148 15.2242L6.00129 11.5309L3.12875 9.04918C2.99847 8.93193 2.91718 8.79827 2.88487 8.6482C2.85257 8.49812 2.86221 8.35169 2.91379 8.20891C2.96538 8.06613 3.04355 7.94888 3.14829 7.85717C3.25303 7.76546 3.39633 7.70683 3.57819 7.6813L7.36917 7.3491L8.83475 3.87078C8.89989 3.71445 9.00098 3.59721 9.13803 3.51904C9.27508 3.44088 9.41499 3.4018 9.55777 3.4018C9.70055 3.4018 9.84047 3.44088 9.97752 3.51904C10.1146 3.59721 10.2157 3.71445 10.2808 3.87078L11.7464 7.3491L15.5374 7.6813C15.7197 7.70736 15.863 7.76598 15.9673 7.85717C16.0715 7.94836 16.1496 8.06561 16.2017 8.20891C16.2539 8.35221 16.2638 8.4989 16.2315 8.64898C16.1991 8.79905 16.1176 8.93245 15.9868 9.04918L13.1143 11.5309L13.9741 15.2242C14.0131 15.3935 14.0001 15.5467 13.935 15.6838C13.8698 15.8208 13.7787 15.9347 13.6614 16.0254C13.5442 16.116 13.4074 16.1681 13.251 16.1817C13.0947 16.1952 12.9449 16.1562 12.8016 16.0644L9.55777 14.1103Z" fill="var(--fill-0, #F0B505)"/>
</g>
</svg>
