<svg width="24" height="24" viewBox="0 0 24 24" fill="none" xmlns="http://www.w3.org/2000/svg">
<g clip-path="url(#clip0_1534_427)">
<path fill-rule="evenodd" clip-rule="evenodd" d="M12.0259 0.227783C5.39785 0.227783 0.0258789 5.50623 0.0258789 12.0189C0.0258789 17.2276 3.46322 21.6478 8.23242 23.2082C8.83278 23.3146 9.04934 22.9517 9.04934 22.6396C9.04934 22.3594 9.03972 21.617 9.03611 20.6346C5.69743 21.3463 4.99239 19.0529 4.99239 19.0529C4.44858 17.691 3.66053 17.3281 3.66053 17.3281C2.5717 16.5963 3.74354 16.6128 3.74354 16.6128C4.94908 16.6956 5.58072 17.8281 5.58072 17.8281C6.65151 19.6298 8.39123 19.1096 9.0722 18.8082C9.18168 18.0457 9.4945 17.5255 9.83619 17.2311C7.17246 16.9344 4.37158 15.9224 4.37158 11.403C4.37158 10.1179 4.83959 9.06342 5.60358 8.24062C5.48207 7.94153 5.06699 6.74161 5.72269 5.11966C5.72269 5.11966 6.72971 4.80165 9.02167 6.32667C10.0005 6.06502 11.0102 5.93146 12.0247 5.92945C13.0391 5.93107 14.0489 6.06464 15.0277 6.32667C17.3208 4.80047 18.3267 5.11966 18.3267 5.11966C18.9824 6.74161 18.5709 7.94153 18.4458 8.24062C19.2158 9.06342 19.6778 10.1167 19.6778 11.403C19.6778 15.9343 16.8745 16.9297 14.2011 17.2217C14.6282 17.5858 15.0132 18.3046 15.0132 19.404C15.0132 20.981 14.9988 22.253 14.9988 22.6396C14.9988 22.9553 15.213 23.3217 15.8254 23.2059C20.5922 21.643 24.0259 17.2264 24.0259 12.0189C24.0259 5.50623 18.6539 0.227783 12.0259 0.227783Z" fill="black"/>
</g>
<defs>
<clipPath id="clip0_1534_427">
<rect width="24" height="24" fill="white"/>
</clipPath>
</defs>
</svg>
