<svg preserveAspectRatio="none" width="100%" height="100%" overflow="visible" style="display: block;" viewBox="0 0 24 24" fill="none" xmlns="http://www.w3.org/2000/svg">
<g id="tg">
<path id="Vector" d="M12 0C8.81813 0 5.76375 1.26506 3.51562 3.51469C1.2652 5.76522 0.000643966 8.81734 0 12C0 15.1813 1.26562 18.2357 3.51562 20.4853C5.76375 22.7349 8.81813 24 12 24C15.1819 24 18.2363 22.7349 20.4844 20.4853C22.7344 18.2357 24 15.1813 24 12C24 8.81869 22.7344 5.76431 20.4844 3.51469C18.2363 1.26506 15.1819 0 12 0Z" fill="url(#paint0_linear_0_60)"/>
<path id="Vector_2" d="M5.43197 11.8726C8.93072 10.3486 11.2632 9.34381 12.4295 8.85831C15.7632 7.47212 16.4551 7.23137 16.907 7.22322C17.0063 7.22162 17.2276 7.24618 17.372 7.3629C17.492 7.46134 17.5257 7.59447 17.5426 7.68793C17.5576 7.78131 17.5782 7.99412 17.5613 8.16025C17.3813 10.0577 16.5995 14.6624 16.202 16.7877C16.0351 17.6869 15.7032 17.9884 15.3826 18.0179C14.6851 18.082 14.1563 17.5574 13.4813 17.1151C12.4257 16.4226 11.8295 15.9917 10.8038 15.3162C9.61884 14.5354 10.3876 14.1062 11.0626 13.405C11.2388 13.2214 14.3101 10.4286 14.3682 10.1753C14.3757 10.1436 14.3832 10.0255 14.312 9.96325C14.2426 9.90081 14.1395 9.92218 14.0645 9.93906C13.9576 9.96306 12.272 11.0783 9.00197 13.2846C8.52384 13.6135 8.09072 13.7738 7.70072 13.7654C7.27322 13.7562 6.44822 13.5231 5.83509 13.324C5.08509 13.0797 4.48697 12.9505 4.53947 12.5356C4.56572 12.3196 4.86384 12.0985 5.43197 11.8726Z" fill="var(--fill-0, white)"/>
</g>
<defs>
<linearGradient id="paint0_linear_0_60" x1="12" y1="0" x2="12" y2="24" gradientUnits="userSpaceOnUse">
<stop stop-color="#2AABEE"/>
<stop offset="1" stop-color="#229ED9"/>
</linearGradient>
</defs>
</svg>
