<svg width="24" height="24" viewBox="0 0 24 24" fill="none" xmlns="http://www.w3.org/2000/svg">
<path fill-rule="evenodd" clip-rule="evenodd" d="M13.2907 9.45182L19.9451 2.3999H22.1505L22.1416 2.40964L14.2708 10.7533L21.4767 20.317C21.5638 20.4321 21.6181 20.5687 21.6341 20.7121C21.65 20.8556 21.6269 21.0007 21.5673 21.1322C21.5076 21.2636 21.4136 21.3765 21.2951 21.459C21.1767 21.5415 21.0381 21.5905 20.8942 21.6008H16.3824C16.268 21.5929 16.1566 21.5604 16.0559 21.5056C15.9552 21.4507 15.8676 21.3748 15.7989 21.2829L10.7284 14.5533L4.11299 21.6008H1.84912L9.74833 13.2518L2.54236 3.68811C2.4524 3.56899 2.39747 3.42713 2.38374 3.2785C2.37 3.12986 2.39801 2.98034 2.46462 2.84676C2.53123 2.71318 2.63379 2.60083 2.76077 2.52235C2.88774 2.44388 3.03409 2.40239 3.18336 2.40256H7.57919C7.83152 2.40256 8.0688 2.5212 8.22019 2.72217L13.2907 9.45182ZM12.6151 11.2225C12.5929 11.1963 12.5722 11.1688 12.5532 11.1402L7.17901 4.00772H4.79295L16.8401 19.9974H19.227L12.6151 11.2225Z" fill="#0C0C0C"/>
</svg>
