<svg width="24" height="24" viewBox="0 0 24 24" fill="none" xmlns="http://www.w3.org/2000/svg">
<g clip-path="url(#clip0_1518_1582)">
<path d="M18.375 0H5.625C2.5184 0 0 2.5184 0 5.625V18.375C0 21.4816 2.5184 24 5.625 24H18.375C21.4816 24 24 21.4816 24 18.375V5.625C24 2.5184 21.4816 0 18.375 0Z" fill="#5865F2"/>
<mask id="mask0_1518_1582" style="mask-type:luminance" maskUnits="userSpaceOnUse" x="2" y="4" width="20" height="16">
<path d="M2.625 4.78125H21.375V19.3059H2.625V4.78125Z" fill="white"/>
</mask>
<g mask="url(#mask0_1518_1582)">
<path d="M18.4976 6.07462C17.2819 5.51668 15.9991 5.11877 14.6811 4.89084C14.6691 4.88865 14.6568 4.89028 14.6458 4.89549C14.6348 4.90071 14.6257 4.90925 14.6198 4.9199C14.455 5.21296 14.2724 5.59546 14.1446 5.89603C12.7034 5.68021 11.2696 5.68021 9.85804 5.89603C9.73016 5.58871 9.54097 5.21296 9.37541 4.9199C9.36931 4.90942 9.36018 4.90103 9.34922 4.89584C9.33826 4.89065 9.32598 4.88891 9.31401 4.89084C7.9959 5.11826 6.71297 5.51619 5.49754 6.07462C5.48719 6.07912 5.47843 6.08664 5.47241 6.09618C3.04166 9.72768 2.37585 13.2699 2.70247 16.7683C2.70446 16.7856 2.71323 16.8014 2.72685 16.8122C4.33054 17.99 5.88407 18.705 7.40872 19.1789C7.42059 19.1824 7.43324 19.1822 7.44499 19.1784C7.45675 19.1745 7.46705 19.1672 7.47454 19.1573C7.83519 18.6648 8.15666 18.1455 8.43238 17.5994C8.43618 17.5919 8.43835 17.5837 8.43874 17.5753C8.43914 17.567 8.43775 17.5586 8.43468 17.5508C8.43161 17.543 8.42691 17.5359 8.42091 17.5301C8.4149 17.5242 8.40773 17.5197 8.39985 17.5168C7.88985 17.3233 7.40432 17.0875 6.93726 16.8197C6.92875 16.8147 6.92161 16.8076 6.91646 16.7992C6.9113 16.7908 6.90831 16.7812 6.90772 16.7714C6.90714 16.7615 6.90899 16.7517 6.91311 16.7427C6.91723 16.7337 6.92349 16.7259 6.93135 16.7199C7.02989 16.6463 7.12672 16.5704 7.22179 16.4923C7.23012 16.4854 7.2402 16.481 7.2509 16.4796C7.26159 16.4781 7.27248 16.4797 7.28235 16.4841C10.351 17.8851 13.673 17.8851 16.7053 16.4841C16.7153 16.4794 16.7263 16.4776 16.7371 16.479C16.748 16.4803 16.7583 16.4847 16.7668 16.4916C16.8619 16.5701 16.959 16.6462 17.0579 16.7199C17.0658 16.7259 17.0722 16.7336 17.0763 16.7426C17.0805 16.7515 17.0824 16.7613 17.0819 16.7712C17.0814 16.781 17.0785 16.7906 17.0734 16.7991C17.0683 16.8075 17.0612 16.8146 17.0528 16.8197C16.5855 17.0926 16.0959 17.3255 15.5894 17.5161C15.5816 17.5191 15.5745 17.5237 15.5685 17.5297C15.5626 17.5357 15.558 17.5428 15.555 17.5507C15.552 17.5585 15.5507 17.5669 15.5511 17.5753C15.5516 17.5837 15.5538 17.5919 15.5577 17.5994C15.8381 18.1412 16.158 18.6616 16.5147 19.1566C16.522 19.1667 16.5322 19.1742 16.544 19.1782C16.5558 19.1822 16.5685 19.1825 16.5805 19.1789C18.1125 18.705 19.6661 17.99 21.2698 16.8122C21.2767 16.8071 21.2824 16.8006 21.2866 16.7932C21.2908 16.7858 21.2934 16.7776 21.2942 16.7691C21.6852 12.7246 20.6394 9.21131 18.5219 6.09693C18.5168 6.08678 18.5081 6.07885 18.4976 6.07462ZM8.89063 14.6382C7.96672 14.6382 7.20547 13.7901 7.20547 12.7484C7.20547 11.7067 7.95201 10.8586 8.89063 10.8586C9.83657 10.8586 10.5904 11.7142 10.5756 12.7484C10.5756 13.7901 9.82916 14.6382 8.89063 14.6382ZM15.1209 14.6382C14.197 14.6382 13.4358 13.7901 13.4358 12.7484C13.4358 11.7067 14.1823 10.8586 15.1209 10.8586C16.0668 10.8586 16.8207 11.7142 16.8059 12.7484C16.8059 13.7901 16.0668 14.6382 15.1209 14.6382Z" fill="white"/>
</g>
</g>
<defs>
<clipPath id="clip0_1518_1582">
<rect width="24" height="24" fill="white"/>
</clipPath>
</defs>
</svg>
