<svg preserveAspectRatio="none" width="100%" height="100%" overflow="visible" style="display: block;" viewBox="0 0 118 118" fill="none" xmlns="http://www.w3.org/2000/svg">
<g id="Frame">
<g id="Vector" filter="url(#filter0_d_0_17)">
<path d="M51 8C40.6589 8 30.7322 12.1115 23.4258 19.4227C16.1119 26.737 12.0021 36.6564 12 47C12 57.3393 16.1133 67.266 23.4258 74.5773C30.7322 81.8885 40.6589 86 51 86C61.3411 86 71.2678 81.8885 78.5742 74.5773C85.8867 67.266 90 57.3393 90 47C90 36.6607 85.8867 26.734 78.5742 19.4227C71.2678 12.1115 61.3411 8 51 8Z" fill="url(#paint0_linear_0_17)"/>
</g>
<path id="Vector_2" d="M29.6539 46.5858C41.0248 41.6328 48.6055 38.3674 52.3958 36.7895C63.2305 32.2844 65.479 31.502 66.9476 31.4755C67.2706 31.4703 67.9897 31.5501 68.4589 31.9294C68.8489 32.2494 68.9586 32.682 69.0134 32.9858C69.0622 33.2893 69.1292 33.9809 69.0744 34.5208C68.4894 40.6877 65.9483 55.6527 64.6564 62.56C64.114 65.4825 63.0355 66.4624 61.9934 66.5581C59.7265 66.7665 58.0081 65.0615 55.8144 63.6239C52.3836 61.3735 50.4458 59.9732 47.1125 57.7776C43.2612 55.2402 45.7597 53.8453 47.9534 51.5662C48.5262 50.9697 58.5078 41.893 58.6967 41.0698C58.7211 40.9668 58.7455 40.5829 58.5139 40.3806C58.2884 40.1776 57.9533 40.2471 57.7095 40.3019C57.3622 40.3799 51.8839 44.0045 41.2564 51.175C39.7025 52.2439 38.2948 52.7649 37.0273 52.7375C35.638 52.7076 32.9567 51.9501 30.964 51.303C28.5265 50.509 26.5826 50.0891 26.7533 48.7406C26.8386 48.0386 27.8075 47.3201 29.6539 46.5858Z" fill="var(--fill-0, white)"/>
</g>
<defs>
<filter id="filter0_d_0_17" x="0" y="0" width="118" height="118" filterUnits="userSpaceOnUse" color-interpolation-filters="sRGB">
<feFlood flood-opacity="0" result="BackgroundImageFix"/>
<feColorMatrix in="SourceAlpha" type="matrix" values="0 0 0 0 0 0 0 0 0 0 0 0 0 0 0 0 0 0 127 0" result="hardAlpha"/>
<feOffset dx="8" dy="12"/>
<feGaussianBlur stdDeviation="10"/>
<feComposite in2="hardAlpha" operator="out"/>
<feColorMatrix type="matrix" values="0 0 0 0 0.0567779 0 0 0 0 0.282081 0 0 0 0 0.394732 0 0 0 0.16 0"/>
<feBlend mode="normal" in2="BackgroundImageFix" result="effect1_dropShadow_0_17"/>
<feBlend mode="normal" in="SourceGraphic" in2="effect1_dropShadow_0_17" result="shape"/>
</filter>
<linearGradient id="paint0_linear_0_17" x1="51" y1="8" x2="51" y2="86" gradientUnits="userSpaceOnUse">
<stop stop-color="#2AABEE"/>
<stop offset="1" stop-color="#229ED9"/>
</linearGradient>
</defs>
</svg>
